{"glyphs":{"0":{"ha":864,"x_min":0,"x_max":0,"o":"m 432 -14 b 774 458 654 -14 774 151 b 432 931 774 765 654 931 b 90 458 210 931 90 765 b 432 -14 90 151 210 -14 z m 432 86 b 206 458 285 86 206 217 b 432 831 206 700 285 831 b 658 458 579 831 658 700 b 432 86 658 217 579 86 z "},"1":{"ha":568,"x_min":0,"x_max":0,"o":"m 329 917 b 51 751 278 846 117 760 l 81 650 b 318 779 167 671 254 718 b 315 672 317 740 315 703 l 315 0 l 426 0 l 426 917 z "},"2":{"ha":810,"x_min":0,"x_max":0,"o":"m 103 0 l 719 0 l 719 104 l 399 104 b 261 100 371 104 292 101 l 261 101 b 700 643 589 319 700 471 b 393 931 700 813 581 931 b 74 658 207 931 97 818 l 171 600 b 389 826 183 738 263 826 b 583 643 508 826 583 751 b 103 90 583 481 469 360 z "},"3":{"ha":810,"x_min":0,"x_max":0,"o":"m 404 931 b 107 735 264 931 151 854 l 211 686 b 406 826 233 771 294 826 b 575 665 515 826 576 772 b 385 514 574 563 508 514 l 349 514 l 349 410 l 385 410 b 596 260 525 410 594 372 b 397 90 597 163 526 90 b 175 260 261 90 208 157 l 72 206 b 389 -14 129 63 233 -14 b 711 246 585 -14 711 97 b 518 463 711 363 639 463 l 518 465 b 690 692 610 465 690 561 b 404 931 690 818 592 931 z "},"4":{"ha":849,"x_min":0,"x_max":0,"o":"m 782 336 l 619 336 l 619 917 l 479 917 l 61 322 l 61 240 l 508 240 l 508 0 l 619 0 l 619 240 l 782 240 z m 419 674 b 511 826 449 715 489 781 l 514 826 l 508 679 l 508 336 l 179 336 z "},"5":{"ha":808,"x_min":0,"x_max":0,"o":"m 432 588 b 222 511 335 588 267 557 l 221 511 l 222 524 l 258 813 l 679 813 l 679 917 l 164 917 l 108 394 l 207 394 b 411 483 250 457 322 483 b 606 286 535 483 604 415 b 403 90 607 164 529 90 b 196 253 275 90 225 156 l 88 196 b 407 -14 140 64 236 -14 b 721 292 603 -14 721 101 b 432 588 721 469 607 588 z "},"6":{"ha":858,"x_min":0,"x_max":0,"o":"m 457 931 b 99 458 254 931 99 765 b 453 -14 99 185 222 -14 b 768 283 646 -14 768 101 b 460 581 768 465 646 581 b 208 413 360 581 239 531 l 203 413 l 203 438 b 450 826 203 656 303 826 b 646 689 560 826 618 774 l 749 738 b 457 931 692 874 603 931 z m 451 474 b 651 285 578 474 651 401 b 451 93 651 164 578 93 b 251 285 332 93 251 169 b 451 474 251 396 332 474 z "},"7":{"ha":779,"x_min":0,"x_max":0,"o":"m 56 917 l 56 813 l 610 813 b 289 0 396 581 289 296 l 403 0 b 731 813 403 310 499 569 l 731 917 z "},"8":{"ha":856,"x_min":0,"x_max":0,"o":"m 428 929 b 136 689 251 929 136 838 b 267 483 136 593 186 518 l 267 482 b 94 247 160 443 94 360 b 428 -14 94 88 228 -14 b 761 247 629 -14 761 88 b 590 482 761 363 694 443 l 590 483 b 719 689 671 519 719 594 b 428 929 719 838 604 929 z m 428 825 b 604 678 536 825 604 771 b 428 532 604 588 533 532 b 251 678 322 532 251 588 b 428 825 251 771 319 825 z m 428 90 b 210 258 294 90 210 154 b 428 428 210 364 297 428 b 646 258 560 428 646 364 b 428 90 646 154 563 90 z "},"9":{"ha":865,"x_min":0,"x_max":0,"o":"m 413 931 b 97 633 219 931 97 815 b 404 336 97 451 219 336 b 660 508 507 336 631 375 l 665 508 l 665 496 b 413 90 665 250 604 90 b 206 251 276 90 235 156 l 96 193 b 414 -14 149 58 244 -14 b 767 458 644 -14 767 151 b 413 931 767 736 643 931 z m 414 824 b 614 632 533 824 614 747 b 414 443 614 521 533 443 b 214 632 288 443 214 515 b 414 824 214 753 288 824 z "}," ":{"ha":474,"x_min":0,"x_max":0,"o":""},"A":{"ha":917,"x_min":0,"x_max":0,"o":"m 763 0 l 881 0 l 525 917 l 393 917 l 36 0 l 153 0 l 250 254 l 665 254 z m 290 358 l 415 688 l 456 811 l 458 811 l 501 683 l 625 358 z "},"Á":{"ha":917,"x_min":0,"x_max":0,"o":"m 610 1238 l 479 1238 l 400 1032 l 490 1032 z m 763 0 l 881 0 l 525 917 l 393 917 l 36 0 l 153 0 l 250 254 l 665 254 z m 290 358 l 415 688 l 456 811 l 458 811 l 501 683 l 625 358 z "},"Ă":{"ha":917,"x_min":0,"x_max":0,"o":"m 458 1024 b 664 1229 581 1024 664 1107 l 572 1229 b 458 1107 572 1164 524 1107 b 344 1229 393 1107 344 1164 l 253 1229 b 458 1024 253 1107 336 1024 z m 763 0 l 881 0 l 525 917 l 393 917 l 36 0 l 153 0 l 250 254 l 665 254 z m 290 358 l 415 688 l 456 811 l 458 811 l 501 683 l 625 358 z "},"Â":{"ha":917,"x_min":0,"x_max":0,"o":"m 458 1182 l 578 1022 l 679 1022 l 521 1254 l 396 1254 l 238 1022 l 339 1022 z m 763 0 l 881 0 l 525 917 l 393 917 l 36 0 l 153 0 l 250 254 l 665 254 z m 290 358 l 415 688 l 456 811 l 458 811 l 501 683 l 625 358 z "},"Ä":{"ha":917,"x_min":0,"x_max":0,"o":"m 324 1031 b 403 1110 371 1031 403 1063 b 324 1189 403 1157 371 1189 b 244 1110 276 1189 244 1157 b 324 1031 244 1063 276 1031 z m 593 1031 b 672 1110 640 1031 672 1063 b 593 1189 672 1157 640 1189 b 514 1110 546 1189 514 1157 b 593 1031 514 1063 546 1031 z m 763 0 l 881 0 l 525 917 l 393 917 l 36 0 l 153 0 l 250 254 l 665 254 z m 290 358 l 415 688 l 456 811 l 458 811 l 501 683 l 625 358 z "},"À":{"ha":917,"x_min":0,"x_max":0,"o":"m 504 1032 l 425 1238 l 294 1238 l 414 1032 z m 763 0 l 881 0 l 525 917 l 393 917 l 36 0 l 153 0 l 250 254 l 665 254 z m 290 358 l 415 688 l 456 811 l 458 811 l 501 683 l 625 358 z "},"Ā":{"ha":917,"x_min":0,"x_max":0,"o":"m 700 1143 l 217 1143 l 217 1050 l 700 1050 z m 763 0 l 881 0 l 525 917 l 393 917 l 36 0 l 153 0 l 250 254 l 665 254 z m 290 358 l 415 688 l 456 811 l 458 811 l 501 683 l 625 358 z "},"Ą":{"ha":917,"x_min":0,"x_max":0,"o":"m 875 -201 b 797 -219 853 -217 821 -219 b 708 -147 743 -219 708 -193 b 881 0 708 -94 740 -46 l 525 917 l 393 917 l 36 0 l 153 0 l 250 254 l 665 254 l 754 19 b 618 -154 661 -21 618 -78 b 783 -299 618 -246 683 -299 b 897 -272 824 -299 871 -290 z m 290 358 l 415 688 l 456 811 l 458 811 l 501 683 l 625 358 z "},"Å":{"ha":917,"x_min":0,"x_max":0,"o":"m 763 0 l 881 0 l 543 871 b 633 1019 599 897 633 950 b 460 1183 633 1117 564 1183 b 285 1019 356 1183 285 1117 b 375 871 285 950 319 897 l 36 0 l 153 0 l 250 254 l 665 254 z m 458 1115 b 557 1019 515 1115 557 1075 b 458 924 557 964 515 924 b 360 1019 401 924 360 964 b 458 1115 360 1075 401 1115 z m 290 358 l 415 688 l 456 811 l 458 811 l 501 683 l 625 358 z "},"Ã":{"ha":917,"x_min":0,"x_max":0,"o":"m 361 1126 b 553 1032 421 1126 449 1032 b 708 1218 649 1032 699 1096 l 621 1218 b 551 1122 611 1158 593 1122 b 363 1217 496 1122 464 1217 b 206 1031 264 1217 215 1153 l 293 1031 b 361 1126 303 1090 319 1126 z m 763 0 l 881 0 l 525 917 l 393 917 l 36 0 l 153 0 l 250 254 l 665 254 z m 290 358 l 415 688 l 456 811 l 458 811 l 501 683 l 625 358 z "},"Æ":{"ha":1325,"x_min":0,"x_max":0,"o":"m 738 104 l 738 413 l 1114 413 l 1114 517 l 738 517 l 738 813 l 1232 813 l 1232 917 l 544 917 l 8 0 l 128 0 l 299 296 l 626 296 l 626 0 l 1253 0 l 1253 104 z m 360 400 l 599 813 l 626 813 l 626 400 z "},"B":{"ha":907,"x_min":0,"x_max":0,"o":"m 150 0 l 475 0 b 813 257 692 0 813 101 b 635 465 813 357 743 444 l 635 467 b 789 664 733 486 789 571 b 476 917 789 819 693 917 l 150 917 z m 261 514 l 261 813 l 478 813 b 672 664 608 813 672 764 b 478 514 672 563 608 514 z m 261 104 l 261 410 l 501 410 b 696 257 632 410 696 354 b 501 104 696 160 632 104 z "},"C":{"ha":953,"x_min":0,"x_max":0,"o":"m 889 235 l 778 276 b 519 90 738 153 642 90 b 211 458 329 90 211 228 b 525 826 211 690 338 826 b 763 665 647 826 722 771 l 872 717 b 517 931 814 856 694 931 b 94 458 261 931 94 749 b 519 -14 94 168 258 -14 b 889 235 692 -14 831 78 z "},"Ć":{"ha":953,"x_min":0,"x_max":0,"o":"m 538 1238 l 458 1032 l 549 1032 l 668 1238 z m 889 235 l 778 276 b 519 90 738 153 642 90 b 211 458 329 90 211 228 b 525 826 211 690 338 826 b 763 665 647 826 722 771 l 872 717 b 517 931 814 856 694 931 b 94 458 261 931 94 749 b 519 -14 94 168 258 -14 b 889 235 692 -14 831 78 z "},"Č":{"ha":953,"x_min":0,"x_max":0,"o":"m 738 1257 l 636 1257 l 517 1097 l 397 1257 l 296 1257 l 454 1025 l 579 1025 z m 889 235 l 778 276 b 519 90 738 153 642 90 b 211 458 329 90 211 228 b 525 826 211 690 338 826 b 763 665 647 826 722 771 l 872 717 b 517 931 814 856 694 931 b 94 458 261 931 94 749 b 519 -14 94 168 258 -14 b 889 235 692 -14 831 78 z "},"Ç":{"ha":953,"x_min":0,"x_max":0,"o":"m 889 235 l 778 276 b 519 90 738 153 642 90 b 211 458 329 90 211 228 b 525 826 211 690 338 826 b 763 665 647 826 722 771 l 872 717 b 517 931 814 856 694 931 b 94 458 261 931 94 749 b 474 -12 94 186 239 8 b 576 -135 554 -51 576 -83 b 497 -215 576 -183 542 -215 b 401 -174 458 -215 424 -197 l 360 -250 b 513 -299 399 -285 447 -299 b 674 -150 615 -299 674 -228 b 596 -7 674 -100 647 -47 b 889 235 732 15 839 101 z "},"D":{"ha":1001,"x_min":0,"x_max":0,"o":"m 446 917 l 150 917 l 150 0 l 446 0 b 907 458 733 0 907 164 b 446 917 907 753 733 917 z m 457 104 l 261 104 l 261 813 l 457 813 b 790 458 667 813 790 681 b 457 104 790 236 667 104 z "},"Ð":{"ha":1024,"x_min":0,"x_max":0,"o":"m 468 917 l 172 917 l 172 504 l 36 504 l 36 421 l 172 421 l 172 0 l 468 0 b 929 458 756 0 929 164 b 468 917 929 753 756 917 z m 479 104 l 283 104 l 283 421 l 557 421 l 557 504 l 283 504 l 283 813 l 479 813 b 813 458 689 813 813 681 b 479 104 813 236 689 104 z "},"Ď":{"ha":1001,"x_min":0,"x_max":0,"o":"m 514 1025 l 672 1257 l 571 1257 l 451 1097 l 332 1257 l 231 1257 l 389 1025 z m 446 917 l 150 917 l 150 0 l 446 0 b 907 458 733 0 907 164 b 446 917 907 753 733 917 z m 457 104 l 261 104 l 261 813 l 457 813 b 790 458 667 813 790 681 b 457 104 790 236 667 104 z "},"Đ":{"ha":1024,"x_min":0,"x_max":0,"o":"m 468 917 l 172 917 l 172 504 l 36 504 l 36 421 l 172 421 l 172 0 l 468 0 b 929 458 756 0 929 164 b 468 917 929 753 756 917 z m 479 104 l 283 104 l 283 421 l 557 421 l 557 504 l 283 504 l 283 813 l 479 813 b 813 458 689 813 813 681 b 479 104 813 236 689 104 z "},"E":{"ha":886,"x_min":0,"x_max":0,"o":"m 261 104 l 261 413 l 675 413 l 675 517 l 261 517 l 261 813 l 793 813 l 793 917 l 150 917 l 150 0 l 814 0 l 814 104 z "},"É":{"ha":886,"x_min":0,"x_max":0,"o":"m 622 1238 l 492 1238 l 413 1032 l 503 1032 z m 261 104 l 261 413 l 675 413 l 675 517 l 261 517 l 261 813 l 793 813 l 793 917 l 150 917 l 150 0 l 814 0 l 814 104 z "},"Ě":{"ha":886,"x_min":0,"x_max":0,"o":"m 533 1025 l 692 1257 l 590 1257 l 471 1097 l 351 1257 l 250 1257 l 408 1025 z m 261 104 l 261 413 l 675 413 l 675 517 l 261 517 l 261 813 l 793 813 l 793 917 l 150 917 l 150 0 l 814 0 l 814 104 z "},"Ê":{"ha":886,"x_min":0,"x_max":0,"o":"m 471 1182 l 590 1022 l 692 1022 l 533 1254 l 408 1254 l 250 1022 l 351 1022 z m 261 104 l 261 413 l 675 413 l 675 517 l 261 517 l 261 813 l 793 813 l 793 917 l 150 917 l 150 0 l 814 0 l 814 104 z "},"Ë":{"ha":886,"x_min":0,"x_max":0,"o":"m 336 1031 b 415 1110 383 1031 415 1063 b 336 1189 415 1157 383 1189 b 257 1110 289 1189 257 1157 b 336 1031 257 1063 289 1031 z m 606 1031 b 685 1110 653 1031 685 1063 b 606 1189 685 1157 653 1189 b 526 1110 558 1189 526 1157 b 606 1031 526 1063 558 1031 z m 261 104 l 261 413 l 675 413 l 675 517 l 261 517 l 261 813 l 793 813 l 793 917 l 150 917 l 150 0 l 814 0 l 814 104 z "},"Ė":{"ha":886,"x_min":0,"x_max":0,"o":"m 471 1050 b 554 1133 521 1050 554 1083 b 471 1217 554 1183 521 1217 b 388 1133 421 1217 388 1183 b 471 1050 388 1083 421 1050 z m 261 104 l 261 413 l 675 413 l 675 517 l 261 517 l 261 813 l 793 813 l 793 917 l 150 917 l 150 0 l 814 0 l 814 104 z "},"È":{"ha":886,"x_min":0,"x_max":0,"o":"m 538 1032 l 458 1238 l 328 1238 l 447 1032 z m 261 104 l 261 413 l 675 413 l 675 517 l 261 517 l 261 813 l 793 813 l 793 917 l 150 917 l 150 0 l 814 0 l 814 104 z "},"Ē":{"ha":886,"x_min":0,"x_max":0,"o":"m 713 1143 l 229 1143 l 229 1050 l 713 1050 z m 261 104 l 261 413 l 675 413 l 675 517 l 261 517 l 261 813 l 793 813 l 793 917 l 150 917 l 150 0 l 814 0 l 814 104 z "},"Ę":{"ha":886,"x_min":0,"x_max":0,"o":"m 808 -201 b 731 -219 786 -217 754 -219 b 642 -147 676 -219 642 -193 b 814 0 642 -94 674 -47 l 814 104 l 261 104 l 261 413 l 675 413 l 675 517 l 261 517 l 261 813 l 793 813 l 793 917 l 150 917 l 150 0 l 672 0 b 551 -162 593 -35 551 -83 b 717 -299 551 -246 617 -299 b 831 -272 757 -299 804 -290 z "},"F":{"ha":847,"x_min":0,"x_max":0,"o":"m 792 813 l 792 917 l 150 917 l 150 0 l 261 0 l 261 413 l 675 413 l 675 517 l 261 517 l 261 813 z "},"G":{"ha":1006,"x_min":0,"x_max":0,"o":"m 503 463 l 503 358 l 794 358 l 794 326 b 524 90 794 168 676 90 b 211 458 319 90 211 228 b 522 826 211 689 336 826 b 788 665 650 826 747 771 l 889 721 b 522 931 818 863 704 931 b 94 458 265 931 94 749 b 519 -14 94 168 258 -14 b 808 124 660 -14 756 38 l 813 0 l 896 0 l 896 463 z "},"Ğ":{"ha":1006,"x_min":0,"x_max":0,"o":"m 518 1024 b 724 1229 640 1024 724 1107 l 632 1229 b 518 1107 632 1164 583 1107 b 404 1229 453 1107 404 1164 l 313 1229 b 518 1024 313 1107 396 1024 z m 503 463 l 503 358 l 794 358 l 794 326 b 524 90 794 168 676 90 b 211 458 319 90 211 228 b 522 826 211 689 336 826 b 788 665 650 826 747 771 l 889 721 b 522 931 818 863 704 931 b 94 458 265 931 94 749 b 519 -14 94 168 258 -14 b 808 124 660 -14 756 38 l 813 0 l 896 0 l 896 463 z "},"H":{"ha":1019,"x_min":0,"x_max":0,"o":"m 758 917 l 758 517 l 261 517 l 261 917 l 150 917 l 150 0 l 261 0 l 261 413 l 758 413 l 758 0 l 869 0 l 869 917 z "},"I":{"ha":411,"x_min":0,"x_max":0,"o":"m 261 917 l 150 917 l 150 0 l 261 0 z "},"Ĳ":{"ha":1197,"x_min":0,"x_max":0,"o":"m 261 917 l 150 917 l 150 0 l 261 0 z m 1057 917 l 946 917 l 946 342 b 742 90 946 178 899 90 b 579 324 603 90 558 167 l 476 303 b 746 -14 440 110 540 -14 b 1057 314 940 -14 1057 108 z "},"Í":{"ha":411,"x_min":0,"x_max":0,"o":"m 226 1238 l 147 1032 l 238 1032 l 357 1238 z m 261 917 l 150 917 l 150 0 l 261 0 z "},"Î":{"ha":411,"x_min":0,"x_max":0,"o":"m 426 1022 l 268 1254 l 143 1254 l -15 1022 l 86 1022 l 206 1182 l 325 1022 z m 261 917 l 150 917 l 150 0 l 261 0 z "},"Ï":{"ha":411,"x_min":0,"x_max":0,"o":"m 86 1189 b 7 1110 39 1189 7 1157 b 86 1031 7 1063 39 1031 b 165 1110 133 1031 165 1063 b 86 1189 165 1157 133 1189 z m 325 1189 b 246 1110 278 1189 246 1157 b 325 1031 246 1063 278 1031 b 404 1110 372 1031 404 1063 b 325 1189 404 1157 372 1189 z m 261 917 l 150 917 l 150 0 l 261 0 z "},"İ":{"ha":411,"x_min":0,"x_max":0,"o":"m 206 1217 b 122 1133 156 1217 122 1183 b 206 1050 122 1083 156 1050 b 289 1133 256 1050 289 1083 b 206 1217 289 1183 256 1217 z m 261 917 l 150 917 l 150 0 l 261 0 z "},"Ì":{"ha":411,"x_min":0,"x_max":0,"o":"m 172 1238 l 42 1238 l 161 1032 l 251 1032 z m 261 917 l 150 917 l 150 0 l 261 0 z "},"Ī":{"ha":411,"x_min":0,"x_max":0,"o":"m 356 1143 l 56 1143 l 56 1050 l 356 1050 z m 261 917 l 150 917 l 150 0 l 261 0 z "},"Į":{"ha":411,"x_min":0,"x_max":0,"o":"m 276 -197 b 194 -218 254 -212 229 -218 b 113 -143 140 -218 113 -192 b 261 0 113 -103 140 -56 l 261 917 l 150 917 l 150 10 b 24 -162 64 -32 24 -94 b 185 -299 24 -246 86 -299 b 303 -268 236 -299 272 -289 z "},"J":{"ha":786,"x_min":0,"x_max":0,"o":"m 646 917 l 535 917 l 535 342 b 331 90 535 178 488 90 b 168 324 192 90 147 167 l 65 303 b 335 -14 29 110 129 -14 b 646 314 529 -14 646 108 z "},"K":{"ha":911,"x_min":0,"x_max":0,"o":"m 739 0 l 872 0 l 503 543 l 868 917 l 722 917 l 261 444 l 261 917 l 150 917 l 150 0 l 261 0 l 261 294 l 425 461 z "},"L":{"ha":831,"x_min":0,"x_max":0,"o":"m 261 104 l 261 917 l 150 917 l 150 0 l 786 0 l 786 104 z "},"Ĺ":{"ha":831,"x_min":0,"x_max":0,"o":"m 357 1238 l 226 1238 l 147 1032 l 238 1032 z m 261 104 l 261 917 l 150 917 l 150 0 l 786 0 l 786 104 z "},"Ľ":{"ha":831,"x_min":0,"x_max":0,"o":"m 522 972 l 417 972 l 389 699 l 465 699 z m 261 104 l 261 917 l 150 917 l 150 0 l 786 0 l 786 104 z "},"Ŀ":{"ha":858,"x_min":0,"x_max":0,"o":"m 261 917 l 150 917 l 150 0 l 786 0 l 786 104 l 261 104 z m 735 565 b 644 475 681 565 644 529 b 735 385 644 421 681 385 b 825 475 789 385 825 421 b 735 565 825 529 789 565 z "},"Ł":{"ha":872,"x_min":0,"x_max":0,"o":"m 303 104 l 303 415 l 549 553 l 549 668 l 303 531 l 303 917 l 192 917 l 192 469 l 46 388 l 46 272 l 192 354 l 192 0 l 828 0 l 828 104 z "},"M":{"ha":1186,"x_min":0,"x_max":0,"o":"m 1036 917 l 865 917 l 665 358 l 594 131 l 592 131 l 522 360 l 321 917 l 150 917 l 150 0 l 256 0 l 256 576 l 243 818 l 244 818 l 546 0 l 640 0 l 942 818 l 943 818 l 931 576 l 931 0 l 1036 0 z "},"N":{"ha":1019,"x_min":0,"x_max":0,"o":"m 869 917 l 764 917 l 764 269 l 769 122 l 768 122 l 669 306 l 288 917 l 150 917 l 150 0 l 256 0 l 256 647 l 250 794 l 251 794 l 349 614 l 732 0 l 869 0 z "},"Ń":{"ha":1019,"x_min":0,"x_max":0,"o":"m 536 1238 l 457 1032 l 547 1032 l 667 1238 z m 869 917 l 764 917 l 764 269 l 769 122 l 768 122 l 669 306 l 288 917 l 150 917 l 150 0 l 256 0 l 256 647 l 250 794 l 251 794 l 349 614 l 732 0 l 869 0 z "},"Ň":{"ha":1019,"x_min":0,"x_max":0,"o":"m 736 1257 l 635 1257 l 515 1097 l 396 1257 l 294 1257 l 453 1025 l 578 1025 z m 869 917 l 764 917 l 764 269 l 769 122 l 768 122 l 669 306 l 288 917 l 150 917 l 150 0 l 256 0 l 256 647 l 250 794 l 251 794 l 349 614 l 732 0 l 869 0 z "},"Ñ":{"ha":1019,"x_min":0,"x_max":0,"o":"m 765 1218 l 678 1218 b 608 1122 668 1158 650 1122 b 419 1217 553 1122 521 1217 b 263 1031 321 1217 272 1153 l 350 1031 b 418 1126 360 1090 376 1126 b 610 1032 478 1126 506 1032 b 765 1218 706 1032 756 1096 z m 869 917 l 764 917 l 764 269 l 769 122 l 768 122 l 669 306 l 288 917 l 150 917 l 150 0 l 256 0 l 256 647 l 250 794 l 251 794 l 349 614 l 732 0 l 869 0 z "},"O":{"ha":1039,"x_min":0,"x_max":0,"o":"m 519 931 b 94 458 258 931 94 749 b 519 -14 94 168 258 -14 b 944 458 781 -14 944 168 b 519 931 944 749 781 931 z m 519 826 b 828 458 710 826 828 689 b 519 90 828 228 710 90 b 211 458 329 90 211 228 b 519 826 211 689 329 826 z "},"Ó":{"ha":1039,"x_min":0,"x_max":0,"o":"m 540 1238 l 461 1032 l 551 1032 l 671 1238 z m 519 931 b 94 458 258 931 94 749 b 519 -14 94 168 258 -14 b 944 458 781 -14 944 168 b 519 931 944 749 781 931 z m 519 826 b 828 458 710 826 828 689 b 519 90 828 228 710 90 b 211 458 329 90 211 228 b 519 826 211 689 329 826 z "},"Ô":{"ha":1039,"x_min":0,"x_max":0,"o":"m 740 1022 l 582 1254 l 457 1254 l 299 1022 l 400 1022 l 519 1182 l 639 1022 z m 519 931 b 94 458 258 931 94 749 b 519 -14 94 168 258 -14 b 944 458 781 -14 944 168 b 519 931 944 749 781 931 z m 519 826 b 828 458 710 826 828 689 b 519 90 828 228 710 90 b 211 458 329 90 211 228 b 519 826 211 689 329 826 z "},"Ö":{"ha":1039,"x_min":0,"x_max":0,"o":"m 385 1189 b 306 1110 338 1189 306 1157 b 385 1031 306 1063 338 1031 b 464 1110 432 1031 464 1063 b 385 1189 464 1157 432 1189 z m 654 1189 b 575 1110 607 1189 575 1157 b 654 1031 575 1063 607 1031 b 733 1110 701 1031 733 1063 b 654 1189 733 1157 701 1189 z m 519 931 b 94 458 258 931 94 749 b 519 -14 94 168 258 -14 b 944 458 781 -14 944 168 b 519 931 944 749 781 931 z m 519 826 b 828 458 710 826 828 689 b 519 90 828 228 710 90 b 211 458 329 90 211 228 b 519 826 211 689 329 826 z "},"Ò":{"ha":1039,"x_min":0,"x_max":0,"o":"m 486 1238 l 356 1238 l 475 1032 l 565 1032 z m 519 931 b 94 458 258 931 94 749 b 519 -14 94 168 258 -14 b 944 458 781 -14 944 168 b 519 931 944 749 781 931 z m 519 826 b 828 458 710 826 828 689 b 519 90 828 228 710 90 b 211 458 329 90 211 228 b 519 826 211 689 329 826 z "},"Ő":{"ha":1039,"x_min":0,"x_max":0,"o":"m 433 1238 l 354 1032 l 444 1032 l 564 1238 z m 679 1238 l 600 1032 l 690 1032 l 810 1238 z m 519 931 b 94 458 258 931 94 749 b 519 -14 94 168 258 -14 b 944 458 781 -14 944 168 b 519 931 944 749 781 931 z m 519 826 b 828 458 710 826 828 689 b 519 90 828 228 710 90 b 211 458 329 90 211 228 b 519 826 211 689 329 826 z "},"Ō":{"ha":1039,"x_min":0,"x_max":0,"o":"m 761 1143 l 278 1143 l 278 1050 l 761 1050 z m 519 931 b 94 458 258 931 94 749 b 519 -14 94 168 258 -14 b 944 458 781 -14 944 168 b 519 931 944 749 781 931 z m 519 826 b 828 458 710 826 828 689 b 519 90 828 228 710 90 b 211 458 329 90 211 228 b 519 826 211 689 329 826 z "},"Ø":{"ha":1039,"x_min":0,"x_max":0,"o":"m 822 811 l 918 949 l 819 949 l 760 864 b 519 931 694 907 614 931 b 94 458 258 931 94 749 b 225 97 94 303 142 179 l 122 -51 l 221 -51 l 289 46 b 519 -14 353 7 431 -14 b 944 458 781 -14 944 168 b 822 811 944 608 900 729 z m 211 458 b 519 826 211 689 329 826 b 697 774 589 826 649 808 l 290 192 b 211 458 239 254 211 346 z m 519 90 b 351 136 454 90 399 106 l 756 715 b 828 458 803 653 828 565 b 519 90 828 228 710 90 z "},"Õ":{"ha":1039,"x_min":0,"x_max":0,"o":"m 769 1218 l 682 1218 b 613 1122 672 1158 654 1122 b 424 1217 557 1122 525 1217 b 267 1031 325 1217 276 1153 l 354 1031 b 422 1126 364 1090 381 1126 b 614 1032 482 1126 510 1032 b 769 1218 710 1032 760 1096 z m 519 931 b 94 458 258 931 94 749 b 519 -14 94 168 258 -14 b 944 458 781 -14 944 168 b 519 931 944 749 781 931 z m 519 826 b 828 458 710 826 828 689 b 519 90 828 228 710 90 b 211 458 329 90 211 228 b 519 826 211 689 329 826 z "},"Œ":{"ha":1500,"x_min":0,"x_max":0,"o":"m 915 104 l 915 413 l 1289 413 l 1289 517 l 915 517 l 915 813 l 1407 813 l 1407 917 l 814 917 l 814 782 b 522 931 747 878 646 931 b 94 458 253 931 94 749 b 517 -14 94 168 256 -14 b 814 138 642 -14 746 40 l 814 0 l 1428 0 l 1428 104 z m 522 90 b 211 458 324 90 211 228 b 522 826 211 689 324 826 b 814 458 696 826 814 689 b 522 90 814 228 696 90 z "},"P":{"ha":847,"x_min":0,"x_max":0,"o":"m 474 917 l 150 917 l 150 0 l 261 0 l 261 358 l 474 358 b 782 638 658 358 782 465 b 474 917 782 810 658 917 z m 457 463 l 261 463 l 261 813 l 457 813 b 665 638 601 813 665 751 b 457 463 665 524 601 463 z "},"Þ":{"ha":871,"x_min":0,"x_max":0,"o":"m 454 753 l 261 753 l 261 917 l 150 917 l 150 0 l 261 0 l 261 183 l 454 183 b 796 468 682 183 796 286 b 454 753 796 651 682 753 z m 465 288 l 261 288 l 261 649 l 465 649 b 679 468 610 649 679 590 b 465 288 679 346 610 288 z "},"Q":{"ha":1039,"x_min":0,"x_max":0,"o":"m 744 -158 b 568 -11 657 -158 579 -136 b 944 458 800 10 944 186 b 519 931 944 749 781 931 b 94 458 258 931 94 749 b 468 -11 94 188 238 11 b 742 -271 481 -210 607 -271 b 944 -210 810 -271 900 -249 l 908 -107 b 744 -158 874 -139 813 -158 z m 211 458 b 519 826 211 689 329 826 b 828 458 710 826 828 689 b 519 90 828 228 710 90 b 211 458 329 90 211 228 z "},"R":{"ha":924,"x_min":0,"x_max":0,"o":"m 731 0 l 863 0 l 604 393 b 807 649 729 426 807 518 b 497 917 807 814 683 917 l 150 917 l 150 0 l 261 0 l 261 381 l 481 381 z m 261 813 l 496 813 b 690 649 626 813 690 758 b 496 485 690 539 626 485 l 261 485 z "},"Ŕ":{"ha":924,"x_min":0,"x_max":0,"o":"m 599 1238 l 468 1238 l 389 1032 l 479 1032 z m 731 0 l 863 0 l 604 393 b 807 649 729 426 807 518 b 497 917 807 814 683 917 l 150 917 l 150 0 l 261 0 l 261 381 l 481 381 z m 261 813 l 496 813 b 690 649 626 813 690 758 b 496 485 690 539 626 485 l 261 485 z "},"Ř":{"ha":924,"x_min":0,"x_max":0,"o":"m 510 1025 l 668 1257 l 567 1257 l 447 1097 l 328 1257 l 226 1257 l 385 1025 z m 731 0 l 863 0 l 604 393 b 807 649 729 426 807 518 b 497 917 807 814 683 917 l 150 917 l 150 0 l 261 0 l 261 381 l 481 381 z m 261 813 l 496 813 b 690 649 626 813 690 758 b 496 485 690 539 626 485 l 261 485 z "},"S":{"ha":890,"x_min":0,"x_max":0,"o":"m 444 931 b 103 658 232 931 103 806 b 439 400 103 518 192 443 b 692 242 632 367 692 321 b 456 90 692 143 597 90 b 163 263 306 90 211 157 l 67 185 b 453 -14 131 71 258 -14 b 807 247 667 -14 807 90 b 474 508 807 389 719 467 b 219 671 281 542 219 585 b 446 826 219 758 300 826 b 703 658 581 826 647 779 l 799 736 b 444 931 728 864 613 931 z "},"Ś":{"ha":890,"x_min":0,"x_max":0,"o":"m 474 1238 l 394 1032 l 485 1032 l 604 1238 z m 444 931 b 103 658 232 931 103 806 b 439 400 103 518 192 443 b 692 242 632 367 692 321 b 456 90 692 143 597 90 b 163 263 306 90 211 157 l 67 185 b 453 -14 131 71 258 -14 b 807 247 667 -14 807 90 b 474 508 807 389 719 467 b 219 671 281 542 219 585 b 446 826 219 758 300 826 b 703 658 581 826 647 779 l 799 736 b 444 931 728 864 613 931 z "},"Š":{"ha":890,"x_min":0,"x_max":0,"o":"m 674 1257 l 572 1257 l 453 1097 l 333 1257 l 232 1257 l 390 1025 l 515 1025 z m 444 931 b 103 658 232 931 103 806 b 439 400 103 518 192 443 b 692 242 632 367 692 321 b 456 90 692 143 597 90 b 163 263 306 90 211 157 l 67 185 b 453 -14 131 71 258 -14 b 807 247 667 -14 807 90 b 474 508 807 389 719 467 b 219 671 281 542 219 585 b 446 826 219 758 300 826 b 703 658 581 826 647 779 l 799 736 b 444 931 728 864 613 931 z "},"ẞ":{"ha":960,"x_min":0,"x_max":0,"o":"m 622 514 l 590 514 l 844 811 l 844 917 l 458 917 b 150 615 282 917 150 796 l 150 0 l 261 0 l 261 614 b 458 813 261 729 351 813 l 713 813 l 471 514 l 471 419 l 578 419 b 788 257 711 419 788 357 b 608 94 788 161 717 94 b 429 164 535 94 464 122 l 382 82 b 619 -7 415 33 504 -7 b 904 257 785 -7 904 97 b 622 514 904 421 790 514 z "},"T":{"ha":839,"x_min":0,"x_max":0,"o":"m 794 917 l 44 917 l 44 813 l 364 813 l 364 0 l 475 0 l 475 813 l 794 813 z "},"Ť":{"ha":839,"x_min":0,"x_max":0,"o":"m 482 1025 l 640 1257 l 539 1257 l 419 1097 l 300 1257 l 199 1257 l 357 1025 z m 794 917 l 44 917 l 44 813 l 364 813 l 364 0 l 475 0 l 475 813 l 794 813 z "},"U":{"ha":1000,"x_min":0,"x_max":0,"o":"m 860 917 l 749 917 l 749 369 b 500 90 749 178 671 90 b 251 369 329 90 251 178 l 251 917 l 140 917 l 140 342 b 500 -14 140 106 269 -14 b 860 342 732 -14 860 106 z "},"Ú":{"ha":1000,"x_min":0,"x_max":0,"o":"m 521 1238 l 442 1032 l 532 1032 l 651 1238 z m 860 917 l 749 917 l 749 369 b 500 90 749 178 671 90 b 251 369 329 90 251 178 l 251 917 l 140 917 l 140 342 b 500 -14 140 106 269 -14 b 860 342 732 -14 860 106 z "},"Û":{"ha":1000,"x_min":0,"x_max":0,"o":"m 721 1022 l 563 1254 l 438 1254 l 279 1022 l 381 1022 l 500 1182 l 619 1022 z m 860 917 l 749 917 l 749 369 b 500 90 749 178 671 90 b 251 369 329 90 251 178 l 251 917 l 140 917 l 140 342 b 500 -14 140 106 269 -14 b 860 342 732 -14 860 106 z "},"Ü":{"ha":1000,"x_min":0,"x_max":0,"o":"m 365 1189 b 286 1110 318 1189 286 1157 b 365 1031 286 1063 318 1031 b 444 1110 413 1031 444 1063 b 365 1189 444 1157 413 1189 z m 635 1189 b 556 1110 588 1189 556 1157 b 635 1031 556 1063 588 1031 b 714 1110 682 1031 714 1063 b 635 1189 714 1157 682 1189 z m 860 917 l 749 917 l 749 369 b 500 90 749 178 671 90 b 251 369 329 90 251 178 l 251 917 l 140 917 l 140 342 b 500 -14 140 106 269 -14 b 860 342 732 -14 860 106 z "},"Ù":{"ha":1000,"x_min":0,"x_max":0,"o":"m 467 1238 l 336 1238 l 456 1032 l 546 1032 z m 860 917 l 749 917 l 749 369 b 500 90 749 178 671 90 b 251 369 329 90 251 178 l 251 917 l 140 917 l 140 342 b 500 -14 140 106 269 -14 b 860 342 732 -14 860 106 z "},"Ű":{"ha":1000,"x_min":0,"x_max":0,"o":"m 392 1240 l 313 1035 l 403 1035 l 522 1240 z m 631 1238 l 551 1032 l 642 1032 l 761 1238 z m 860 917 l 749 917 l 749 369 b 500 90 749 178 671 90 b 251 369 329 90 251 178 l 251 917 l 140 917 l 140 342 b 500 -14 140 106 269 -14 b 860 342 732 -14 860 106 z "},"Ū":{"ha":1000,"x_min":0,"x_max":0,"o":"m 742 1143 l 258 1143 l 258 1050 l 742 1050 z m 860 917 l 749 917 l 749 369 b 500 90 749 178 671 90 b 251 369 329 90 251 178 l 251 917 l 140 917 l 140 342 b 500 -14 140 106 269 -14 b 860 342 732 -14 860 106 z "},"Ų":{"ha":1000,"x_min":0,"x_max":0,"o":"m 749 917 l 749 369 b 500 90 749 178 671 90 b 251 369 329 90 251 178 l 251 917 l 140 917 l 140 342 b 471 -14 140 115 258 -3 b 390 -161 418 -53 390 -97 b 556 -299 390 -242 456 -299 b 668 -274 596 -299 642 -290 l 646 -203 b 569 -219 624 -217 593 -219 b 481 -146 517 -219 481 -192 b 615 -3 481 -101 515 -54 b 860 342 774 33 860 149 l 860 917 z "},"Ů":{"ha":1000,"x_min":0,"x_max":0,"o":"m 501 1239 b 326 1075 397 1239 326 1172 b 501 910 326 976 397 910 b 675 1075 606 910 675 976 b 501 1239 675 1172 606 1239 z m 501 1171 b 600 1075 558 1171 600 1131 b 501 979 600 1019 558 979 b 403 1075 444 979 403 1019 b 501 1171 403 1131 444 1171 z m 860 917 l 749 917 l 749 369 b 500 90 749 178 671 90 b 251 369 329 90 251 178 l 251 917 l 140 917 l 140 342 b 500 -14 140 106 269 -14 b 860 342 732 -14 860 106 z "},"V":{"ha":900,"x_min":0,"x_max":0,"o":"m 861 917 l 742 917 l 508 282 l 450 101 l 392 283 l 158 917 l 39 917 l 388 0 l 514 0 z "},"W":{"ha":1335,"x_min":0,"x_max":0,"o":"m 619 594 l 667 801 l 668 801 l 715 594 l 878 0 l 1015 0 l 1285 917 l 1172 917 l 950 85 l 733 917 l 607 917 l 390 88 l 169 917 l 50 917 l 321 0 l 458 0 z "},"X":{"ha":835,"x_min":0,"x_max":0,"o":"m 790 0 l 485 472 l 781 917 l 663 917 l 428 558 l 194 917 l 63 917 l 356 467 l 35 0 l 164 0 l 413 379 l 661 0 z "},"Y":{"ha":794,"x_min":0,"x_max":0,"o":"m 781 917 l 649 917 l 397 472 l 146 917 l 14 917 l 342 358 l 342 0 l 453 0 l 453 358 z "},"Ý":{"ha":794,"x_min":0,"x_max":0,"o":"m 418 1238 l 339 1032 l 429 1032 l 549 1238 z m 781 917 l 649 917 l 397 472 l 146 917 l 14 917 l 342 358 l 342 0 l 453 0 l 453 358 z "},"Ÿ":{"ha":794,"x_min":0,"x_max":0,"o":"m 263 1189 b 183 1110 215 1189 183 1157 b 263 1031 183 1063 215 1031 b 342 1110 310 1031 342 1063 b 263 1189 342 1157 310 1189 z m 532 1189 b 453 1110 485 1189 453 1157 b 532 1031 453 1063 485 1031 b 611 1110 579 1031 611 1063 b 532 1189 611 1157 579 1189 z m 781 917 l 649 917 l 397 472 l 146 917 l 14 917 l 342 358 l 342 0 l 453 0 l 453 358 z "},"Z":{"ha":875,"x_min":0,"x_max":0,"o":"m 210 104 l 781 818 l 781 917 l 92 917 l 92 813 l 649 813 l 78 99 l 78 0 l 799 0 l 799 104 z "},"Ź":{"ha":875,"x_min":0,"x_max":0,"o":"m 576 1238 l 446 1238 l 367 1032 l 457 1032 z m 210 104 l 781 818 l 781 917 l 92 917 l 92 813 l 649 813 l 78 99 l 78 0 l 799 0 l 799 104 z "},"Ž":{"ha":875,"x_min":0,"x_max":0,"o":"m 488 1025 l 646 1257 l 544 1257 l 425 1097 l 306 1257 l 204 1257 l 363 1025 z m 210 104 l 781 818 l 781 917 l 92 917 l 92 813 l 649 813 l 78 99 l 78 0 l 799 0 l 799 104 z "},"Ż":{"ha":875,"x_min":0,"x_max":0,"o":"m 425 1050 b 508 1133 475 1050 508 1083 b 425 1217 508 1183 475 1217 b 342 1133 375 1217 342 1183 b 425 1050 342 1083 375 1050 z m 210 104 l 781 818 l 781 917 l 92 917 l 92 813 l 649 813 l 78 99 l 78 0 l 799 0 l 799 104 z "},"Ģ":{"ha":1006,"x_min":0,"x_max":0,"o":"m 503 463 l 503 358 l 794 358 l 794 326 b 524 90 794 168 676 90 b 211 458 319 90 211 228 b 522 826 211 689 336 826 b 788 665 650 826 747 771 l 889 721 b 522 931 818 863 704 931 b 94 458 265 931 94 749 b 519 -14 94 168 258 -14 b 808 124 660 -14 756 38 l 813 0 l 896 0 l 896 463 z m 426 -329 l 514 -329 l 604 -106 l 488 -106 z "},"Ķ":{"ha":911,"x_min":0,"x_max":0,"o":"m 503 543 l 868 917 l 722 917 l 261 444 l 261 917 l 150 917 l 150 0 l 261 0 l 261 294 l 425 461 l 739 0 l 872 0 z m 382 -329 l 469 -329 l 560 -106 l 443 -106 z "},"Ļ":{"ha":831,"x_min":0,"x_max":0,"o":"m 261 104 l 261 917 l 150 917 l 150 0 l 786 0 l 786 104 z m 367 -329 l 454 -329 l 544 -106 l 428 -106 z "},"Ņ":{"ha":1019,"x_min":0,"x_max":0,"o":"m 869 917 l 764 917 l 764 269 l 769 122 l 768 122 l 669 306 l 288 917 l 150 917 l 150 0 l 256 0 l 256 647 l 250 794 l 251 794 l 349 614 l 732 0 l 869 0 z m 593 -106 l 476 -106 l 415 -329 l 503 -329 z "},"Ŗ":{"ha":924,"x_min":0,"x_max":0,"o":"m 604 393 b 807 649 729 426 807 518 b 497 917 807 814 683 917 l 150 917 l 150 0 l 261 0 l 261 381 l 481 381 l 731 0 l 863 0 z m 261 813 l 496 813 b 690 649 626 813 690 758 b 496 485 690 539 626 485 l 261 485 z m 371 -329 l 458 -329 l 549 -106 l 432 -106 z "},"Ş":{"ha":890,"x_min":0,"x_max":0,"o":"m 807 247 b 474 508 807 389 719 467 b 219 671 281 542 219 585 b 446 826 219 758 300 826 b 703 658 581 826 647 779 l 799 736 b 444 931 728 864 613 931 b 103 658 232 931 103 806 b 439 400 103 518 192 443 b 692 242 632 367 692 321 b 456 90 692 143 597 90 b 163 263 306 90 211 157 l 67 185 b 414 -12 126 79 242 -1 b 515 -135 493 -53 515 -83 b 436 -215 515 -183 481 -215 b 340 -174 397 -215 363 -197 l 299 -250 b 451 -299 338 -285 386 -299 b 613 -150 554 -299 613 -228 b 536 -8 613 -100 586 -47 b 807 247 703 15 807 111 z "},"Ţ":{"ha":839,"x_min":0,"x_max":0,"o":"m 794 813 l 794 917 l 44 917 l 44 813 l 364 813 l 364 0 b 475 -135 444 -54 475 -82 b 396 -215 475 -183 440 -215 b 300 -174 357 -215 322 -197 l 258 -250 b 411 -299 297 -285 346 -299 b 574 -151 511 -299 574 -228 b 475 13 574 -93 547 -37 l 475 813 z "},"Ș":{"ha":890,"x_min":0,"x_max":0,"o":"m 444 931 b 103 658 232 931 103 806 b 439 400 103 518 192 443 b 692 242 632 367 692 321 b 456 90 692 143 597 90 b 163 263 306 90 211 157 l 67 185 b 453 -14 131 71 258 -14 b 807 247 667 -14 807 90 b 474 508 807 389 719 467 b 219 671 281 542 219 585 b 446 826 219 758 300 826 b 703 658 581 826 647 779 l 799 736 b 444 931 728 864 613 931 z m 540 -106 l 424 -106 l 363 -329 l 450 -329 z "},"Ț":{"ha":839,"x_min":0,"x_max":0,"o":"m 794 917 l 44 917 l 44 813 l 364 813 l 364 0 l 475 0 l 475 813 l 794 813 z m 306 -329 l 393 -329 l 483 -106 l 367 -106 z "},"a":{"ha":786,"x_min":0,"x_max":0,"o":"m 699 81 b 646 131 660 81 646 97 l 646 472 b 372 708 646 633 531 708 b 92 539 238 708 128 642 l 174 479 b 372 611 211 567 281 611 b 535 458 476 611 535 550 l 535 419 l 350 389 b 79 172 171 358 79 276 b 315 -14 79 47 185 -14 b 539 89 404 -14 494 24 b 664 -14 551 11 596 -14 b 747 0 699 -14 728 -7 l 754 88 b 699 81 738 83 717 81 z m 321 83 b 194 172 242 83 194 114 b 379 300 194 238 257 278 l 535 329 l 535 233 b 321 83 535 142 432 83 z "},"á":{"ha":786,"x_min":0,"x_max":0,"o":"m 542 1042 l 421 1042 l 315 810 l 406 810 z m 699 81 b 646 131 660 81 646 97 l 646 472 b 372 708 646 633 531 708 b 92 539 238 708 128 642 l 174 479 b 372 611 211 567 281 611 b 535 458 476 611 535 550 l 535 419 l 350 389 b 79 172 171 358 79 276 b 315 -14 79 47 185 -14 b 539 89 404 -14 494 24 b 664 -14 551 11 596 -14 b 747 0 699 -14 728 -7 l 754 88 b 699 81 738 83 717 81 z m 321 83 b 194 172 242 83 194 114 b 379 300 194 238 257 278 l 535 329 l 535 233 b 321 83 535 142 432 83 z "},"ă":{"ha":786,"x_min":0,"x_max":0,"o":"m 383 801 b 589 1007 506 801 589 885 l 497 1007 b 383 885 497 942 449 885 b 269 1007 318 885 269 942 l 178 1007 b 383 801 178 885 261 801 z m 699 81 b 646 131 660 81 646 97 l 646 472 b 372 708 646 633 531 708 b 92 539 238 708 128 642 l 174 479 b 372 611 211 567 281 611 b 535 458 476 611 535 550 l 535 419 l 350 389 b 79 172 171 358 79 276 b 315 -14 79 47 185 -14 b 539 89 404 -14 494 24 b 664 -14 551 11 596 -14 b 747 0 699 -14 728 -7 l 754 88 b 699 81 738 83 717 81 z m 321 83 b 194 172 242 83 194 114 b 379 300 194 238 257 278 l 535 329 l 535 233 b 321 83 535 142 432 83 z "},"â":{"ha":786,"x_min":0,"x_max":0,"o":"m 383 954 l 501 800 l 603 800 l 447 1032 l 319 1032 l 164 800 l 265 800 z m 699 81 b 646 131 660 81 646 97 l 646 472 b 372 708 646 633 531 708 b 92 539 238 708 128 642 l 174 479 b 372 611 211 567 281 611 b 535 458 476 611 535 550 l 535 419 l 350 389 b 79 172 171 358 79 276 b 315 -14 79 47 185 -14 b 539 89 404 -14 494 24 b 664 -14 551 11 596 -14 b 747 0 699 -14 728 -7 l 754 88 b 699 81 738 83 717 81 z m 321 83 b 194 172 242 83 194 114 b 379 300 194 238 257 278 l 535 329 l 535 233 b 321 83 535 142 432 83 z "},"ä":{"ha":786,"x_min":0,"x_max":0,"o":"m 249 808 b 328 888 296 808 328 840 b 249 967 328 935 296 967 b 169 888 201 967 169 935 b 249 808 169 840 201 808 z m 518 808 b 597 888 565 808 597 840 b 518 967 597 935 565 967 b 439 888 471 967 439 935 b 518 808 439 840 471 808 z m 699 81 b 646 131 660 81 646 97 l 646 472 b 372 708 646 633 531 708 b 92 539 238 708 128 642 l 174 479 b 372 611 211 567 281 611 b 535 458 476 611 535 550 l 535 419 l 350 389 b 79 172 171 358 79 276 b 315 -14 79 47 185 -14 b 539 89 404 -14 494 24 b 664 -14 551 11 596 -14 b 747 0 699 -14 728 -7 l 754 88 b 699 81 738 83 717 81 z m 321 83 b 194 172 242 83 194 114 b 379 300 194 238 257 278 l 535 329 l 535 233 b 321 83 535 142 432 83 z "},"à":{"ha":786,"x_min":0,"x_max":0,"o":"m 442 810 l 336 1042 l 215 1042 l 351 810 z m 699 81 b 646 131 660 81 646 97 l 646 472 b 372 708 646 633 531 708 b 92 539 238 708 128 642 l 174 479 b 372 611 211 567 281 611 b 535 458 476 611 535 550 l 535 419 l 350 389 b 79 172 171 358 79 276 b 315 -14 79 47 185 -14 b 539 89 404 -14 494 24 b 664 -14 551 11 596 -14 b 747 0 699 -14 728 -7 l 754 88 b 699 81 738 83 717 81 z m 321 83 b 194 172 242 83 194 114 b 379 300 194 238 257 278 l 535 329 l 535 233 b 321 83 535 142 432 83 z "},"ā":{"ha":786,"x_min":0,"x_max":0,"o":"m 625 921 l 142 921 l 142 828 l 625 828 z m 699 81 b 646 131 660 81 646 97 l 646 472 b 372 708 646 633 531 708 b 92 539 238 708 128 642 l 174 479 b 372 611 211 567 281 611 b 535 458 476 611 535 550 l 535 419 l 350 389 b 79 172 171 358 79 276 b 315 -14 79 47 185 -14 b 539 89 404 -14 494 24 b 664 -14 551 11 596 -14 b 747 0 699 -14 728 -7 l 754 88 b 699 81 738 83 717 81 z m 321 83 b 194 172 242 83 194 114 b 379 300 194 238 257 278 l 535 329 l 535 233 b 321 83 535 142 432 83 z "},"ą":{"ha":786,"x_min":0,"x_max":0,"o":"m 656 -219 b 575 -146 603 -219 575 -192 b 732 -6 575 -93 608 -46 b 747 0 738 -3 743 -1 l 754 88 b 699 81 738 83 717 81 b 646 131 660 81 646 97 l 646 472 b 372 708 646 633 531 708 b 92 539 238 708 128 642 l 174 479 b 372 611 211 567 281 611 b 535 458 476 611 535 550 l 535 419 l 350 389 b 79 172 171 358 79 276 b 315 -14 79 47 185 -14 b 542 94 406 -14 500 26 b 610 4 554 49 581 21 b 485 -165 531 -36 485 -89 b 647 -299 485 -246 547 -299 b 754 -274 688 -299 728 -290 l 732 -203 b 656 -219 710 -217 679 -219 z m 321 83 b 194 172 242 83 194 114 b 379 300 194 238 257 275 l 535 329 l 535 233 b 321 83 535 142 432 83 z "},"å":{"ha":786,"x_min":0,"x_max":0,"o":"m 379 799 b 553 964 483 799 553 865 b 379 1128 553 1061 483 1128 b 204 964 275 1128 204 1061 b 379 799 204 865 275 799 z m 379 1060 b 478 964 436 1060 478 1019 b 379 868 478 908 436 868 b 281 964 322 868 281 908 b 379 1060 281 1019 322 1060 z m 699 81 b 646 131 660 81 646 97 l 646 472 b 372 708 646 633 531 708 b 92 539 238 708 128 642 l 174 479 b 372 611 211 567 281 611 b 535 458 476 611 535 550 l 535 419 l 350 389 b 79 172 171 358 79 276 b 315 -14 79 47 185 -14 b 539 89 404 -14 494 24 b 664 -14 551 11 596 -14 b 747 0 699 -14 728 -7 l 754 88 b 699 81 738 83 717 81 z m 321 83 b 194 172 242 83 194 114 b 379 300 194 238 257 278 l 535 329 l 535 233 b 321 83 535 142 432 83 z "},"ã":{"ha":786,"x_min":0,"x_max":0,"o":"m 286 904 b 478 810 346 904 374 810 b 633 996 574 810 624 874 l 546 996 b 476 900 536 936 518 900 b 288 994 421 900 389 994 b 131 808 189 994 140 931 l 218 808 b 286 904 228 868 244 904 z m 699 81 b 646 131 660 81 646 97 l 646 472 b 372 708 646 633 531 708 b 92 539 238 708 128 642 l 174 479 b 372 611 211 567 281 611 b 535 458 476 611 535 550 l 535 419 l 350 389 b 79 172 171 358 79 276 b 315 -14 79 47 185 -14 b 539 89 404 -14 494 24 b 664 -14 551 11 596 -14 b 747 0 699 -14 728 -7 l 754 88 b 699 81 738 83 717 81 z m 321 83 b 194 172 242 83 194 114 b 379 300 194 238 257 278 l 535 329 l 535 233 b 321 83 535 142 432 83 z "},"æ":{"ha":1228,"x_min":0,"x_max":0,"o":"m 1146 383 b 849 708 1146 563 1050 708 b 608 567 742 708 658 654 b 376 708 567 660 485 708 b 92 539 243 708 132 646 l 174 479 b 374 611 211 567 282 611 b 544 458 483 611 544 550 l 544 406 l 338 379 b 79 172 167 357 79 276 b 306 -14 79 58 169 -14 b 589 157 438 -14 550 43 b 857 -14 635 39 732 -14 b 1132 138 1007 -14 1079 43 l 1039 186 b 857 83 1014 119 958 83 b 644 306 744 83 660 165 l 1140 306 b 1146 383 1143 325 1146 351 z m 849 611 b 1039 404 967 611 1026 532 l 647 404 b 849 611 664 535 740 611 z m 325 83 b 194 172 240 83 194 113 b 367 290 194 238 244 271 l 544 318 l 544 275 b 325 83 544 156 439 83 z "},"b":{"ha":875,"x_min":0,"x_max":0,"o":"m 471 708 b 240 586 367 708 283 658 l 240 1014 l 129 1014 l 129 0 l 226 0 l 233 121 b 471 -14 274 42 361 -14 b 788 347 664 -14 788 121 b 471 708 788 574 664 708 z m 458 83 b 240 339 326 83 240 182 l 240 356 b 458 611 240 513 326 611 b 676 347 594 611 676 508 b 458 83 676 186 594 83 z "},"c":{"ha":783,"x_min":0,"x_max":0,"o":"m 422 708 b 86 347 213 708 86 572 b 422 -14 86 122 213 -14 b 717 190 569 -14 669 63 l 614 226 b 419 83 593 135 528 83 b 197 347 281 83 197 182 b 419 611 197 513 281 611 b 604 474 515 611 575 563 l 710 524 b 422 708 658 638 565 708 z "},"ć":{"ha":783,"x_min":0,"x_max":0,"o":"m 449 1042 l 343 810 l 433 810 l 569 1042 z m 422 708 b 86 347 213 708 86 572 b 422 -14 86 122 213 -14 b 717 190 569 -14 669 63 l 614 226 b 419 83 593 135 528 83 b 197 347 281 83 197 182 b 419 611 197 513 281 611 b 604 474 515 611 575 563 l 710 524 b 422 708 658 638 565 708 z "},"č":{"ha":783,"x_min":0,"x_max":0,"o":"m 631 1042 l 529 1042 l 411 888 l 293 1042 l 192 1042 l 347 810 l 475 810 z m 422 708 b 86 347 213 708 86 572 b 422 -14 86 122 213 -14 b 717 190 569 -14 669 63 l 614 226 b 419 83 593 135 528 83 b 197 347 281 83 197 182 b 419 611 197 513 281 611 b 604 474 515 611 575 563 l 710 524 b 422 708 658 638 565 708 z "},"ç":{"ha":783,"x_min":0,"x_max":0,"o":"m 717 190 l 614 226 b 419 83 593 135 528 83 b 197 347 281 83 197 182 b 419 611 197 513 281 611 b 604 474 515 611 575 563 l 710 524 b 422 708 658 638 565 708 b 86 347 213 708 86 572 b 358 -10 86 146 188 17 b 467 -135 443 -51 467 -82 b 388 -215 467 -183 432 -215 b 292 -174 349 -215 314 -197 l 250 -250 b 403 -299 289 -285 338 -299 b 564 -150 506 -299 564 -228 b 488 -8 564 -100 539 -49 b 717 190 599 11 676 82 z "},"d":{"ha":875,"x_min":0,"x_max":0,"o":"m 635 1014 l 635 586 b 404 708 592 658 508 708 b 88 347 211 708 88 574 b 404 -14 88 121 211 -14 b 642 121 514 -14 601 42 l 649 0 l 746 0 l 746 1014 z m 417 83 b 199 347 281 83 199 186 b 417 611 199 508 281 611 b 635 356 549 611 635 513 l 635 339 b 417 83 635 182 549 83 z "},"ð":{"ha":861,"x_min":0,"x_max":0,"o":"m 629 846 l 757 872 l 738 942 l 585 899 b 439 1014 543 943 494 981 l 285 1014 b 486 875 369 969 435 924 l 261 825 l 275 757 l 533 824 b 646 576 590 753 624 674 b 411 674 596 639 519 674 b 86 331 226 674 86 544 b 414 -14 86 115 213 -14 b 758 400 649 -14 758 158 b 629 846 758 581 717 729 z m 419 83 b 201 331 286 83 201 175 b 426 576 201 483 286 576 b 650 331 565 576 650 483 b 419 83 650 200 565 83 z "},"ď":{"ha":890,"x_min":0,"x_max":0,"o":"m 635 586 b 404 708 592 658 508 708 b 88 347 211 708 88 574 b 404 -14 88 121 211 -14 b 642 121 514 -14 601 42 l 649 0 l 746 0 l 746 1014 l 635 1014 z m 851 1014 l 824 740 l 900 740 l 957 1014 z m 417 83 b 199 347 281 83 199 186 b 417 611 199 508 281 611 b 635 356 549 611 635 513 l 635 339 b 417 83 635 182 549 83 z "},"đ":{"ha":874,"x_min":0,"x_max":0,"o":"m 853 871 l 746 871 l 746 1014 l 635 1014 l 635 871 l 417 871 l 417 786 l 635 786 l 635 586 b 404 708 592 658 508 708 b 88 347 211 708 88 574 b 404 -14 88 121 211 -14 b 642 121 514 -14 601 42 l 649 0 l 746 0 l 746 786 l 853 786 z m 417 83 b 199 347 281 83 199 186 b 417 611 199 508 281 611 b 635 356 549 611 635 513 l 635 339 b 417 83 635 182 549 83 z "},"e":{"ha":807,"x_min":0,"x_max":0,"o":"m 725 383 b 414 708 725 563 615 708 b 86 347 204 708 86 572 b 422 -14 86 122 213 -14 b 711 138 572 -14 658 43 l 618 186 b 422 83 593 119 524 83 b 196 306 294 83 210 165 l 719 306 b 725 383 722 325 725 351 z m 414 611 b 618 404 532 611 603 532 l 197 404 b 414 611 214 535 290 611 z "},"é":{"ha":807,"x_min":0,"x_max":0,"o":"m 568 1042 l 447 1042 l 342 810 l 432 810 z m 725 383 b 414 708 725 563 615 708 b 86 347 204 708 86 572 b 422 -14 86 122 213 -14 b 711 138 572 -14 658 43 l 618 186 b 422 83 593 119 524 83 b 196 306 294 83 210 165 l 719 306 b 725 383 722 325 725 351 z m 414 611 b 618 404 532 611 603 532 l 197 404 b 414 611 214 535 290 611 z "},"ě":{"ha":807,"x_min":0,"x_max":0,"o":"m 474 810 l 629 1042 l 528 1042 l 410 888 l 292 1042 l 190 1042 l 346 810 z m 725 383 b 414 708 725 563 615 708 b 86 347 204 708 86 572 b 422 -14 86 122 213 -14 b 711 138 572 -14 658 43 l 618 186 b 422 83 593 119 524 83 b 196 306 294 83 210 165 l 719 306 b 725 383 722 325 725 351 z m 414 611 b 618 404 532 611 603 532 l 197 404 b 414 611 214 535 290 611 z "},"ê":{"ha":807,"x_min":0,"x_max":0,"o":"m 410 954 l 528 800 l 629 800 l 474 1032 l 346 1032 l 190 800 l 292 800 z m 725 383 b 414 708 725 563 615 708 b 86 347 204 708 86 572 b 422 -14 86 122 213 -14 b 711 138 572 -14 658 43 l 618 186 b 422 83 593 119 524 83 b 196 306 294 83 210 165 l 719 306 b 725 383 722 325 725 351 z m 414 611 b 618 404 532 611 603 532 l 197 404 b 414 611 214 535 290 611 z "},"ë":{"ha":807,"x_min":0,"x_max":0,"o":"m 275 808 b 354 888 322 808 354 840 b 275 967 354 935 322 967 b 196 888 228 967 196 935 b 275 808 196 840 228 808 z m 544 808 b 624 888 592 808 624 840 b 544 967 624 935 592 967 b 465 888 497 967 465 935 b 544 808 465 840 497 808 z m 725 383 b 414 708 725 563 615 708 b 86 347 204 708 86 572 b 422 -14 86 122 213 -14 b 711 138 572 -14 658 43 l 618 186 b 422 83 593 119 524 83 b 196 306 294 83 210 165 l 719 306 b 725 383 722 325 725 351 z m 414 611 b 618 404 532 611 603 532 l 197 404 b 414 611 214 535 290 611 z "},"ė":{"ha":807,"x_min":0,"x_max":0,"o":"m 410 828 b 493 911 460 828 493 861 b 410 994 493 961 460 994 b 326 911 360 994 326 961 b 410 828 326 861 360 828 z m 725 383 b 414 708 725 563 615 708 b 86 347 204 708 86 572 b 422 -14 86 122 213 -14 b 711 138 572 -14 658 43 l 618 186 b 422 83 593 119 524 83 b 196 306 294 83 210 165 l 719 306 b 725 383 722 325 725 351 z m 414 611 b 618 404 532 611 603 532 l 197 404 b 414 611 214 535 290 611 z "},"è":{"ha":807,"x_min":0,"x_max":0,"o":"m 468 810 l 363 1042 l 242 1042 l 378 810 z m 725 383 b 414 708 725 563 615 708 b 86 347 204 708 86 572 b 422 -14 86 122 213 -14 b 711 138 572 -14 658 43 l 618 186 b 422 83 593 119 524 83 b 196 306 294 83 210 165 l 719 306 b 725 383 722 325 725 351 z m 414 611 b 618 404 532 611 603 532 l 197 404 b 414 611 214 535 290 611 z "},"ē":{"ha":807,"x_min":0,"x_max":0,"o":"m 651 921 l 168 921 l 168 828 l 651 828 z m 725 383 b 414 708 725 563 615 708 b 86 347 204 708 86 572 b 422 -14 86 122 213 -14 b 711 138 572 -14 658 43 l 618 186 b 422 83 593 119 524 83 b 196 306 294 83 210 165 l 719 306 b 725 383 722 325 725 351 z m 414 611 b 618 404 532 611 603 532 l 197 404 b 414 611 214 535 290 611 z "},"ę":{"ha":807,"x_min":0,"x_max":0,"o":"m 725 383 b 414 708 725 563 615 708 b 86 347 204 708 86 572 b 414 -14 86 125 210 -10 b 336 -157 365 -54 336 -99 b 501 -299 336 -240 401 -299 b 614 -274 542 -299 588 -290 l 592 -203 b 515 -219 569 -217 539 -219 b 428 -140 464 -219 428 -190 b 551 4 428 -94 467 -49 b 711 138 625 28 676 74 l 618 186 b 422 83 593 119 524 83 b 196 306 294 83 210 165 l 719 306 b 725 383 722 325 725 351 z m 414 611 b 618 404 532 611 603 532 l 197 404 b 414 611 214 535 290 611 z "},"f":{"ha":546,"x_min":0,"x_max":0,"o":"m 294 800 b 421 919 294 883 340 919 b 500 899 453 919 478 913 l 529 989 b 411 1021 504 1010 460 1021 b 183 811 258 1021 183 935 l 183 694 l 44 694 l 44 599 l 183 599 l 183 0 l 294 0 l 294 599 l 526 599 l 526 694 l 294 694 z "},"g":{"ha":763,"x_min":0,"x_max":0,"o":"m 517 89 l 286 89 b 194 164 232 89 194 115 b 272 251 194 211 217 239 b 379 239 303 243 339 239 b 664 474 546 239 664 336 b 576 649 664 546 632 607 b 742 725 596 699 649 725 l 717 822 b 521 681 613 822 547 776 b 379 708 479 699 432 708 b 94 474 213 708 94 611 b 196 283 94 393 129 325 b 92 147 135 263 92 219 b 186 19 92 86 133 44 b 64 -115 110 -1 64 -51 b 383 -299 64 -219 164 -299 b 726 -76 571 -299 726 -214 b 517 89 726 24 649 89 z m 379 618 b 549 474 475 618 549 560 b 379 329 549 388 475 329 b 210 474 283 329 210 388 b 379 618 210 560 283 618 z m 396 -206 b 167 -93 243 -206 167 -161 b 300 -7 167 -40 213 -7 l 486 -7 b 624 -89 590 -7 624 -39 b 396 -206 624 -150 543 -206 z "},"ğ":{"ha":739,"x_min":0,"x_max":0,"o":"m 385 801 b 590 1007 507 801 590 885 l 499 1007 b 385 885 499 942 450 885 b 271 1007 319 885 271 942 l 179 1007 b 385 801 179 885 263 801 z m 503 89 l 272 89 b 181 164 218 89 181 115 b 258 251 181 211 203 239 b 365 239 289 243 325 239 b 650 474 532 239 650 336 b 589 625 650 533 628 585 b 739 725 593 694 649 725 l 714 822 b 522 674 615 822 536 767 b 365 708 478 696 425 708 b 81 474 199 708 81 611 b 182 283 81 393 115 325 b 78 147 121 263 78 219 b 172 19 78 86 119 44 b 50 -115 96 -1 50 -51 b 369 -299 50 -219 150 -299 b 713 -76 557 -299 713 -214 b 503 89 713 24 635 89 z m 365 618 b 535 474 461 618 535 560 b 365 329 535 388 461 329 b 196 474 269 329 196 388 b 365 618 196 560 269 618 z m 382 -206 b 153 -93 229 -206 153 -161 b 286 -7 153 -40 199 -7 l 472 -7 b 610 -89 576 -7 610 -39 b 382 -206 610 -150 529 -206 z "},"h":{"ha":860,"x_min":0,"x_max":0,"o":"m 467 708 b 240 590 372 708 289 674 l 240 1014 l 129 1014 l 129 0 l 240 0 l 240 368 b 456 611 240 546 354 611 b 626 406 551 611 626 560 l 626 0 l 738 0 l 738 444 b 467 708 738 624 615 708 z "},"i":{"ha":369,"x_min":0,"x_max":0,"o":"m 185 828 b 268 911 235 828 268 861 b 185 994 268 961 235 994 b 101 911 135 994 101 961 b 185 828 101 861 135 828 z m 240 694 l 129 694 l 129 0 l 240 0 z "},"ı":{"ha":369,"x_min":0,"x_max":0,"o":"m 240 694 l 129 694 l 129 0 l 240 0 z "},"í":{"ha":369,"x_min":0,"x_max":0,"o":"m 236 1042 l 131 810 l 221 810 l 357 1042 z m 240 694 l 129 694 l 129 0 l 240 0 z "},"î":{"ha":369,"x_min":0,"x_max":0,"o":"m 404 800 l 249 1032 l 121 1032 l -35 800 l 67 800 l 185 954 l 303 800 z m 240 694 l 129 694 l 129 0 l 240 0 z "},"ï":{"ha":369,"x_min":0,"x_max":0,"o":"m 74 808 b 154 888 122 808 154 840 b 74 967 154 935 122 967 b -6 888 26 967 -6 935 b 74 808 -6 840 26 808 z m 296 808 b 375 888 343 808 375 840 b 296 967 375 935 343 967 b 215 888 247 967 215 935 b 296 808 215 840 247 808 z m 240 694 l 129 694 l 129 0 l 240 0 z "},"ì":{"ha":369,"x_min":0,"x_max":0,"o":"m 138 1042 l 17 1042 l 153 810 l 243 810 z m 240 694 l 129 694 l 129 0 l 240 0 z "},"ĳ":{"ha":739,"x_min":0,"x_max":0,"o":"m 185 828 b 268 911 235 828 268 861 b 185 994 268 961 235 994 b 101 911 135 994 101 961 b 185 828 101 861 135 828 z m 554 994 b 471 911 508 994 471 957 b 554 828 471 865 508 828 b 638 911 600 828 638 865 b 554 994 638 957 600 994 z m 240 694 l 129 694 l 129 0 l 240 0 z m 610 694 l 499 694 l 499 -60 b 397 -190 499 -157 457 -190 b 283 -147 349 -190 310 -171 l 260 -253 b 399 -299 292 -279 342 -299 b 610 -71 493 -299 610 -244 z "},"ī":{"ha":369,"x_min":0,"x_max":0,"o":"m 339 921 l 31 921 l 31 828 l 339 828 z m 240 694 l 129 694 l 129 0 l 240 0 z "},"į":{"ha":369,"x_min":0,"x_max":0,"o":"m 185 828 b 268 911 235 828 268 861 b 185 994 268 961 235 994 b 101 911 135 994 101 961 b 185 828 101 861 135 828 z m 264 -200 b 182 -221 242 -214 208 -221 b 103 -151 131 -221 103 -192 b 240 0 103 -100 132 -61 l 240 694 l 129 694 l 129 3 b 11 -162 51 -44 11 -96 b 172 -299 11 -246 74 -299 b 290 -269 224 -299 260 -289 z "},"j":{"ha":369,"x_min":0,"x_max":0,"o":"m 185 994 b 101 911 139 994 101 957 b 185 828 101 865 139 828 b 268 911 231 828 268 865 b 185 994 268 957 231 994 z m 240 694 l 129 694 l 129 -60 b 28 -190 129 -157 88 -190 b -86 -147 -21 -190 -60 -171 l -110 -253 b 29 -299 -78 -279 -28 -299 b 240 -71 124 -299 240 -244 z "},"k":{"ha":788,"x_min":0,"x_max":0,"o":"m 621 0 l 756 0 l 468 424 l 739 694 l 600 694 l 240 335 l 240 1014 l 129 1014 l 129 0 l 240 0 l 240 196 l 388 343 z "},"l":{"ha":425,"x_min":0,"x_max":0,"o":"m 235 1014 l 124 1014 l 124 172 b 290 -14 124 46 178 -14 b 393 6 326 -14 364 -7 l 411 113 b 310 93 371 97 347 93 b 235 186 253 93 235 115 z "},"ĺ":{"ha":438,"x_min":0,"x_max":0,"o":"m 181 1292 l 129 1111 l 218 1111 l 303 1292 z m 235 1014 l 124 1014 l 124 172 b 290 -14 124 46 178 -14 b 393 6 326 -14 364 -7 l 411 113 b 310 93 371 97 347 93 b 235 186 253 93 235 115 z "},"ľ":{"ha":438,"x_min":0,"x_max":0,"o":"m 235 1014 l 124 1014 l 124 172 b 290 -14 124 46 178 -14 b 393 6 326 -14 364 -7 l 411 113 b 310 93 371 97 347 93 b 235 186 253 93 235 115 z m 447 1014 l 342 1014 l 314 740 l 390 740 z "},"ŀ":{"ha":565,"x_min":0,"x_max":0,"o":"m 235 1014 l 124 1014 l 124 172 b 290 -14 124 46 178 -14 b 393 6 326 -14 364 -7 l 411 113 b 310 93 371 97 347 93 b 235 186 253 93 235 115 z m 464 583 b 374 493 410 583 374 547 b 464 403 374 439 410 403 b 554 493 518 403 554 439 b 464 583 554 547 518 583 z "},"ł":{"ha":517,"x_min":0,"x_max":0,"o":"m 374 93 b 299 186 317 93 299 115 l 299 474 l 465 579 l 465 694 l 299 589 l 299 1014 l 188 1014 l 188 518 l 54 433 l 54 318 l 188 403 l 188 172 b 354 -14 188 46 242 -14 b 457 6 390 -14 428 -7 l 475 113 b 374 93 435 97 411 93 z "},"m":{"ha":1324,"x_min":0,"x_max":0,"o":"m 936 708 b 694 572 849 708 738 667 b 456 708 649 665 553 708 b 233 586 369 708 283 671 l 226 694 l 129 694 l 129 0 l 240 0 l 240 371 b 446 611 240 543 354 611 b 610 433 538 611 610 560 l 610 0 l 721 0 l 721 381 b 926 611 721 529 818 611 b 1090 433 1018 611 1090 560 l 1090 0 l 1201 0 l 1201 444 b 936 708 1201 628 1069 708 z "},"n":{"ha":860,"x_min":0,"x_max":0,"o":"m 467 708 b 233 586 371 708 282 674 l 226 694 l 129 694 l 129 0 l 240 0 l 240 369 b 456 611 240 547 354 611 b 626 406 551 611 626 560 l 626 0 l 738 0 l 738 444 b 467 708 738 624 615 708 z "},"ń":{"ha":860,"x_min":0,"x_max":0,"o":"m 600 1042 l 479 1042 l 374 810 l 464 810 z m 467 708 b 233 586 371 708 282 674 l 226 694 l 129 694 l 129 0 l 240 0 l 240 369 b 456 611 240 547 354 611 b 626 406 551 611 626 560 l 626 0 l 738 0 l 738 444 b 467 708 738 624 615 708 z "},"ň":{"ha":860,"x_min":0,"x_max":0,"o":"m 506 810 l 661 1042 l 560 1042 l 442 888 l 324 1042 l 222 1042 l 378 810 z m 467 708 b 233 586 371 708 282 674 l 226 694 l 129 694 l 129 0 l 240 0 l 240 369 b 456 611 240 547 354 611 b 626 406 551 611 626 560 l 626 0 l 738 0 l 738 444 b 467 708 738 624 615 708 z "},"ñ":{"ha":860,"x_min":0,"x_max":0,"o":"m 344 904 b 536 810 404 904 432 810 b 692 996 632 810 682 874 l 604 996 b 535 900 594 936 576 900 b 346 994 479 900 447 994 b 189 808 247 994 199 931 l 276 808 b 344 904 286 868 303 904 z m 467 708 b 233 586 371 708 282 674 l 226 694 l 129 694 l 129 0 l 240 0 l 240 369 b 456 611 240 547 354 611 b 626 406 551 611 626 560 l 626 0 l 738 0 l 738 444 b 467 708 738 624 615 708 z "},"o":{"ha":844,"x_min":0,"x_max":0,"o":"m 422 708 b 86 347 213 708 86 572 b 422 -14 86 122 213 -14 b 758 347 632 -14 758 122 b 422 708 758 572 632 708 z m 422 613 b 647 347 563 613 647 513 b 422 82 647 182 563 82 b 197 347 282 82 197 182 b 422 613 197 513 282 613 z "},"ó":{"ha":844,"x_min":0,"x_max":0,"o":"m 460 1042 l 354 810 l 444 810 l 581 1042 z m 422 708 b 86 347 213 708 86 572 b 422 -14 86 122 213 -14 b 758 347 632 -14 758 122 b 422 708 758 572 632 708 z m 422 613 b 647 347 563 613 647 513 b 422 82 647 182 563 82 b 197 347 282 82 197 182 b 422 613 197 513 282 613 z "},"ô":{"ha":844,"x_min":0,"x_max":0,"o":"m 642 800 l 486 1032 l 358 1032 l 203 800 l 304 800 l 422 954 l 540 800 z m 422 708 b 86 347 213 708 86 572 b 422 -14 86 122 213 -14 b 758 347 632 -14 758 122 b 422 708 758 572 632 708 z m 422 613 b 647 347 563 613 647 513 b 422 82 647 182 563 82 b 197 347 282 82 197 182 b 422 613 197 513 282 613 z "},"ö":{"ha":844,"x_min":0,"x_max":0,"o":"m 288 967 b 208 888 240 967 208 935 b 288 808 208 840 240 808 b 367 888 335 808 367 840 b 288 967 367 935 335 967 z m 557 967 b 478 888 510 967 478 935 b 557 808 478 840 510 808 b 636 888 604 808 636 840 b 557 967 636 935 604 967 z m 422 708 b 86 347 213 708 86 572 b 422 -14 86 122 213 -14 b 758 347 632 -14 758 122 b 422 708 758 572 632 708 z m 422 613 b 647 347 563 613 647 513 b 422 82 647 182 563 82 b 197 347 282 82 197 182 b 422 613 197 513 282 613 z "},"ò":{"ha":844,"x_min":0,"x_max":0,"o":"m 375 1042 l 254 1042 l 390 810 l 481 810 z m 422 708 b 86 347 213 708 86 572 b 422 -14 86 122 213 -14 b 758 347 632 -14 758 122 b 422 708 758 572 632 708 z m 422 613 b 647 347 563 613 647 513 b 422 82 647 182 563 82 b 197 347 282 82 197 182 b 422 613 197 513 282 613 z "},"ő":{"ha":844,"x_min":0,"x_max":0,"o":"m 453 1042 l 332 1042 l 226 810 l 317 810 z m 697 1042 l 576 1042 l 471 810 l 561 810 z m 422 708 b 86 347 213 708 86 572 b 422 -14 86 122 213 -14 b 758 347 632 -14 758 122 b 422 708 758 572 632 708 z m 422 613 b 647 347 563 613 647 513 b 422 82 647 182 563 82 b 197 347 282 82 197 182 b 422 613 197 513 282 613 z "},"ō":{"ha":844,"x_min":0,"x_max":0,"o":"m 664 921 l 181 921 l 181 828 l 664 828 z m 422 708 b 86 347 213 708 86 572 b 422 -14 86 122 213 -14 b 758 347 632 -14 758 122 b 422 708 758 572 632 708 z m 422 613 b 647 347 563 613 647 513 b 422 82 647 182 563 82 b 197 347 282 82 197 182 b 422 613 197 513 282 613 z "},"ø":{"ha":846,"x_min":0,"x_max":0,"o":"m 422 708 b 86 347 213 708 86 572 b 181 76 86 231 119 139 l 85 -51 l 178 -51 l 240 31 b 422 -14 290 1 351 -14 b 758 347 632 -14 758 122 b 674 607 758 457 729 544 l 765 726 l 672 726 l 618 656 b 422 708 565 690 500 708 z m 247 164 b 197 347 215 210 197 271 b 422 613 197 513 282 613 b 556 572 475 613 519 599 l 299 232 l 249 164 z m 422 82 b 303 114 376 82 335 93 l 560 456 l 604 517 l 606 517 b 647 347 633 472 647 415 b 422 82 647 182 563 82 z "},"õ":{"ha":844,"x_min":0,"x_max":0,"o":"m 672 996 l 585 996 b 515 900 575 936 557 900 b 326 994 460 900 428 994 b 169 808 228 994 179 931 l 257 808 b 325 904 267 868 283 904 b 517 810 385 904 413 810 b 672 996 613 810 663 874 z m 422 708 b 86 347 213 708 86 572 b 422 -14 86 122 213 -14 b 758 347 632 -14 758 122 b 422 708 758 572 632 708 z m 422 613 b 647 347 563 613 647 513 b 422 82 647 182 563 82 b 197 347 282 82 197 182 b 422 613 197 513 282 613 z "},"œ":{"ha":1374,"x_min":0,"x_max":0,"o":"m 1290 383 b 979 708 1290 563 1181 708 b 708 553 850 708 757 653 b 426 708 656 653 558 708 b 86 347 213 708 86 572 b 426 -14 86 122 213 -14 b 708 144 560 -14 657 43 b 988 -14 761 43 857 -14 b 1276 138 1138 -14 1224 43 l 1183 186 b 988 83 1158 119 1089 83 b 761 306 860 83 775 165 l 1285 306 b 1290 383 1288 325 1290 351 z m 426 83 b 201 347 286 83 201 182 b 426 611 201 513 286 611 b 651 347 567 611 651 513 b 426 83 651 182 567 83 z m 979 611 b 1183 404 1097 611 1168 532 l 763 404 b 979 611 779 535 856 611 z "},"p":{"ha":875,"x_min":0,"x_max":0,"o":"m 471 708 b 233 574 361 708 274 653 l 226 694 l 129 694 l 129 -292 l 240 -292 l 240 108 b 471 -14 283 36 367 -14 b 788 347 664 -14 788 121 b 471 708 788 574 664 708 z m 458 83 b 240 339 326 83 240 182 l 240 356 b 458 611 240 513 326 611 b 676 347 594 611 676 508 b 458 83 676 186 594 83 z "},"þ":{"ha":875,"x_min":0,"x_max":0,"o":"m 471 708 b 240 599 367 708 286 664 l 240 1014 l 129 1014 l 129 -292 l 240 -292 l 240 96 b 471 -14 286 31 367 -14 b 788 347 664 -14 788 121 b 471 708 788 574 664 708 z m 458 83 b 240 339 326 83 240 182 l 240 356 b 458 611 240 513 326 611 b 676 347 594 611 676 508 b 458 83 676 186 594 83 z "},"q":{"ha":876,"x_min":0,"x_max":0,"o":"m 650 694 l 643 574 b 406 708 603 653 515 708 b 89 347 213 708 89 574 b 406 -14 89 121 213 -14 b 636 108 510 -14 593 36 l 636 -292 l 747 -292 l 747 694 z m 418 83 b 200 347 282 83 200 186 b 418 611 200 508 282 611 b 636 356 550 611 636 513 l 636 339 b 418 83 636 182 550 83 z "},"r":{"ha":567,"x_min":0,"x_max":0,"o":"m 457 708 b 235 581 349 708 274 665 l 219 694 l 129 694 l 129 0 l 240 0 l 240 375 b 424 604 240 531 340 604 b 511 586 460 604 490 597 l 533 694 b 457 708 513 706 481 708 z "},"ŕ":{"ha":567,"x_min":0,"x_max":0,"o":"m 464 1042 l 343 1042 l 238 810 l 328 810 z m 457 708 b 235 581 349 708 274 665 l 219 694 l 129 694 l 129 0 l 240 0 l 240 375 b 424 604 240 531 340 604 b 511 586 460 604 490 597 l 533 694 b 457 708 513 706 481 708 z "},"ř":{"ha":567,"x_min":0,"x_max":0,"o":"m 369 810 l 525 1042 l 424 1042 l 306 888 l 188 1042 l 86 1042 l 242 810 z m 457 708 b 235 581 349 708 274 665 l 219 694 l 129 694 l 129 0 l 240 0 l 240 375 b 424 604 240 531 340 604 b 511 586 460 604 490 597 l 533 694 b 457 708 513 706 481 708 z "},"s":{"ha":732,"x_min":0,"x_max":0,"o":"m 365 -14 b 656 192 543 -14 656 71 b 392 396 656 306 586 364 b 204 510 250 419 204 450 b 367 611 204 561 274 611 b 547 486 454 611 517 578 l 642 542 b 367 708 603 656 515 708 b 93 500 197 708 93 613 b 363 293 93 383 165 329 b 544 186 501 268 544 238 b 376 83 544 129 490 83 b 157 206 276 83 190 121 l 67 143 b 365 -14 119 36 238 -14 z "},"ś":{"ha":732,"x_min":0,"x_max":0,"o":"m 404 1042 l 299 810 l 389 810 l 525 1042 z m 365 -14 b 656 192 543 -14 656 71 b 392 396 656 306 586 364 b 204 510 250 419 204 450 b 367 611 204 561 274 611 b 547 486 454 611 517 578 l 642 542 b 367 708 603 656 515 708 b 93 500 197 708 93 613 b 363 293 93 383 165 329 b 544 186 501 268 544 238 b 376 83 544 129 490 83 b 157 206 276 83 190 121 l 67 143 b 365 -14 119 36 238 -14 z "},"š":{"ha":732,"x_min":0,"x_max":0,"o":"m 586 1042 l 485 1042 l 367 888 l 249 1042 l 147 1042 l 303 810 l 431 810 z m 365 -14 b 656 192 543 -14 656 71 b 392 396 656 306 586 364 b 204 510 250 419 204 450 b 367 611 204 561 274 611 b 547 486 454 611 517 578 l 642 542 b 367 708 603 656 515 708 b 93 500 197 708 93 613 b 363 293 93 383 165 329 b 544 186 501 268 544 238 b 376 83 544 129 490 83 b 157 206 276 83 190 121 l 67 143 b 365 -14 119 36 238 -14 z "},"ß":{"ha":861,"x_min":0,"x_max":0,"o":"m 518 543 l 518 546 b 742 763 679 546 742 671 b 453 1021 742 876 667 1021 b 129 690 206 1021 129 881 l 129 0 l 240 0 l 240 657 b 442 917 240 828 286 917 b 628 756 563 917 628 865 b 429 586 628 658 554 586 l 375 586 l 375 482 l 429 482 b 671 286 585 482 671 415 b 476 88 671 171 603 88 b 357 122 424 88 385 100 l 325 32 b 471 -14 350 8 408 -14 b 778 274 676 -14 778 126 b 518 543 778 397 711 543 z "},"ſ":{"ha":361,"x_min":0,"x_max":0,"o":"m 124 0 l 235 0 l 235 800 b 333 919 235 883 271 919 b 396 899 358 919 378 913 l 418 989 b 311 1021 399 1010 364 1021 b 124 811 174 1021 124 935 z "},"t":{"ha":582,"x_min":0,"x_max":0,"o":"m 515 142 b 397 90 483 110 447 90 b 293 192 336 90 293 124 l 293 599 l 550 599 l 550 694 l 293 694 l 293 892 l 182 861 l 182 694 l 43 694 l 43 599 l 182 599 l 182 172 b 375 -14 183 38 272 -14 b 554 49 451 -14 511 10 z "},"ť":{"ha":582,"x_min":0,"x_max":0,"o":"m 511 1065 l 406 1065 l 378 792 l 454 792 z m 515 142 b 397 90 483 110 447 90 b 293 192 336 90 293 124 l 293 599 l 550 599 l 550 694 l 293 694 l 293 892 l 182 861 l 182 694 l 43 694 l 43 599 l 182 599 l 182 172 b 375 -14 183 38 272 -14 b 554 49 451 -14 511 10 z "},"u":{"ha":860,"x_min":0,"x_max":0,"o":"m 619 694 l 619 317 b 397 83 619 153 515 83 b 233 269 297 83 233 126 l 233 694 l 122 694 l 122 240 b 378 -14 122 57 240 -14 b 626 106 489 -14 578 22 l 633 0 l 731 0 l 731 694 z "},"ú":{"ha":860,"x_min":0,"x_max":0,"o":"m 586 1042 l 465 1042 l 360 810 l 450 810 z m 619 694 l 619 317 b 397 83 619 153 515 83 b 233 269 297 83 233 126 l 233 694 l 122 694 l 122 240 b 378 -14 122 57 240 -14 b 626 106 489 -14 578 22 l 633 0 l 731 0 l 731 694 z "},"û":{"ha":860,"x_min":0,"x_max":0,"o":"m 428 954 l 546 800 l 647 800 l 492 1032 l 364 1032 l 208 800 l 310 800 z m 619 694 l 619 317 b 397 83 619 153 515 83 b 233 269 297 83 233 126 l 233 694 l 122 694 l 122 240 b 378 -14 122 57 240 -14 b 626 106 489 -14 578 22 l 633 0 l 731 0 l 731 694 z "},"ü":{"ha":860,"x_min":0,"x_max":0,"o":"m 293 808 b 372 888 340 808 372 840 b 293 967 372 935 340 967 b 214 888 246 967 214 935 b 293 808 214 840 246 808 z m 563 808 b 642 888 610 808 642 840 b 563 967 642 935 610 967 b 483 888 515 967 483 935 b 563 808 483 840 515 808 z m 619 694 l 619 317 b 397 83 619 153 515 83 b 233 269 297 83 233 126 l 233 694 l 122 694 l 122 240 b 378 -14 122 57 240 -14 b 626 106 489 -14 578 22 l 633 0 l 731 0 l 731 694 z "},"ù":{"ha":860,"x_min":0,"x_max":0,"o":"m 486 810 l 381 1042 l 260 1042 l 396 810 z m 619 694 l 619 317 b 397 83 619 153 515 83 b 233 269 297 83 233 126 l 233 694 l 122 694 l 122 240 b 378 -14 122 57 240 -14 b 626 106 489 -14 578 22 l 633 0 l 731 0 l 731 694 z "},"ű":{"ha":860,"x_min":0,"x_max":0,"o":"m 458 1042 l 338 1042 l 232 810 l 322 810 z m 703 1042 l 582 1042 l 476 810 l 567 810 z m 619 694 l 619 317 b 397 83 619 153 515 83 b 233 269 297 83 233 126 l 233 694 l 122 694 l 122 240 b 378 -14 122 57 240 -14 b 626 106 489 -14 578 22 l 633 0 l 731 0 l 731 694 z "},"ū":{"ha":860,"x_min":0,"x_max":0,"o":"m 669 921 l 186 921 l 186 828 l 669 828 z m 619 694 l 619 317 b 397 83 619 153 515 83 b 233 269 297 83 233 126 l 233 694 l 122 694 l 122 240 b 378 -14 122 57 240 -14 b 626 106 489 -14 578 22 l 633 0 l 731 0 l 731 694 z "},"ģ":{"ha":739,"x_min":0,"x_max":0,"o":"m 496 1081 l 413 1081 l 315 815 l 438 815 z m 517 89 l 286 89 b 194 164 232 89 194 115 b 272 251 194 211 217 239 b 379 239 303 243 339 239 b 664 474 546 239 664 336 b 576 649 664 546 632 607 b 742 725 596 699 649 725 l 717 822 b 521 681 613 822 547 776 b 379 708 479 699 432 708 b 94 474 213 708 94 611 b 196 283 94 393 129 325 b 92 147 135 263 92 219 b 186 19 92 86 133 44 b 64 -115 110 -1 64 -51 b 383 -299 64 -219 164 -299 b 726 -76 571 -299 726 -214 b 517 89 726 24 649 89 z m 379 618 b 549 474 475 618 549 560 b 379 329 549 388 475 329 b 210 474 283 329 210 388 b 379 618 210 560 283 618 z m 396 -206 b 167 -93 243 -206 167 -161 b 300 -7 167 -40 213 -7 l 486 -7 b 624 -89 590 -7 624 -39 b 396 -206 624 -150 543 -206 z "},"ķ":{"ha":788,"x_min":0,"x_max":0,"o":"m 468 424 l 739 694 l 600 694 l 240 335 l 240 1014 l 129 1014 l 129 0 l 240 0 l 240 196 l 388 343 l 621 0 l 756 0 z m 301 -329 l 389 -329 l 479 -106 l 363 -106 z "},"ļ":{"ha":425,"x_min":0,"x_max":0,"o":"m 235 1014 l 124 1014 l 124 172 b 290 -14 124 46 178 -14 b 393 6 326 -14 364 -7 l 411 113 b 310 93 371 97 347 93 b 235 186 253 93 235 115 z m 339 -106 l 222 -106 l 161 -329 l 249 -329 z "},"ņ":{"ha":860,"x_min":0,"x_max":0,"o":"m 467 708 b 233 586 371 708 282 674 l 226 694 l 129 694 l 129 0 l 240 0 l 240 369 b 456 611 240 547 354 611 b 626 406 551 611 626 560 l 626 0 l 738 0 l 738 444 b 467 708 738 624 615 708 z m 339 -329 l 426 -329 l 517 -106 l 400 -106 z "},"ŗ":{"ha":567,"x_min":0,"x_max":0,"o":"m 457 708 b 235 581 349 708 274 665 l 219 694 l 129 694 l 129 0 l 240 0 l 240 375 b 424 604 240 531 340 604 b 511 586 460 604 490 597 l 533 694 b 457 708 513 706 481 708 z m 78 -329 l 165 -329 l 256 -106 l 139 -106 z "},"ş":{"ha":732,"x_min":0,"x_max":0,"o":"m 656 192 b 392 396 656 306 586 364 b 204 510 250 419 204 450 b 367 611 204 561 274 611 b 547 486 454 611 517 578 l 642 542 b 367 708 603 656 515 708 b 93 500 197 708 93 613 b 363 293 93 383 165 329 b 544 186 501 268 544 238 b 376 83 544 129 490 83 b 157 206 276 83 190 121 l 67 143 b 333 -12 115 46 218 -6 b 435 -135 413 -53 435 -83 b 356 -215 435 -183 400 -215 b 260 -174 317 -215 282 -197 l 218 -250 b 371 -299 257 -285 306 -299 b 532 -150 474 -299 532 -228 b 453 -7 532 -100 506 -46 b 656 192 579 17 656 92 z "},"ţ":{"ha":610,"x_min":0,"x_max":0,"o":"m 433 -8 b 554 49 482 0 522 21 l 515 142 b 397 90 483 110 447 90 b 293 192 336 90 293 124 l 293 599 l 550 599 l 550 694 l 293 694 l 293 892 l 182 861 l 182 694 l 43 694 l 43 599 l 182 599 l 182 172 b 297 -3 183 74 231 19 b 411 -135 386 -50 411 -81 b 332 -215 411 -183 376 -215 b 236 -174 293 -215 258 -197 l 194 -250 b 347 -299 233 -285 282 -299 b 508 -150 450 -299 508 -228 b 433 -8 508 -101 485 -49 z "},"ș":{"ha":732,"x_min":0,"x_max":0,"o":"m 365 -14 b 656 192 543 -14 656 71 b 392 396 656 306 586 364 b 204 510 250 419 204 450 b 367 611 204 561 274 611 b 547 486 454 611 517 578 l 642 542 b 367 708 603 656 515 708 b 93 500 197 708 93 613 b 363 293 93 383 165 329 b 544 186 501 268 544 238 b 376 83 544 129 490 83 b 157 206 276 83 190 121 l 67 143 b 365 -14 119 36 238 -14 z m 429 -106 l 313 -106 l 251 -329 l 339 -329 z "},"ț":{"ha":582,"x_min":0,"x_max":0,"o":"m 375 -14 b 554 49 451 -14 511 10 l 515 142 b 397 90 483 110 447 90 b 293 192 336 90 293 124 l 293 599 l 550 599 l 550 694 l 293 694 l 293 892 l 182 861 l 182 694 l 43 694 l 43 599 l 182 599 l 182 172 b 375 -14 183 38 272 -14 z m 219 -329 l 307 -329 l 397 -106 l 281 -106 z "},"ų":{"ha":860,"x_min":0,"x_max":0,"o":"m 724 -201 b 647 -219 701 -215 671 -219 b 572 -153 600 -219 572 -199 b 731 0 572 -100 615 -61 l 731 694 l 619 694 l 619 328 b 390 83 619 174 508 83 b 233 269 297 83 233 126 l 233 694 l 122 694 l 122 240 b 378 -14 122 57 240 -14 b 625 125 474 -14 569 36 l 639 14 b 486 -169 535 -37 486 -89 b 633 -299 486 -246 533 -299 b 746 -271 674 -299 719 -287 z "},"ů":{"ha":860,"x_min":0,"x_max":0,"o":"m 424 799 b 597 964 528 799 597 865 b 424 1128 597 1061 528 1128 b 249 964 319 1128 249 1061 b 424 799 249 865 319 799 z m 424 1060 b 522 964 481 1060 522 1019 b 424 868 522 908 481 868 b 325 964 367 868 325 908 b 424 1060 325 1019 367 1060 z m 619 694 l 619 317 b 397 83 619 153 515 83 b 233 269 297 83 233 126 l 233 694 l 122 694 l 122 240 b 378 -14 122 57 240 -14 b 626 106 489 -14 578 22 l 633 0 l 731 0 l 731 694 z "},"v":{"ha":722,"x_min":0,"x_max":0,"o":"m 589 694 l 363 113 l 143 694 l 17 694 l 306 0 l 417 0 l 706 694 z "},"w":{"ha":1189,"x_min":0,"x_max":0,"o":"m 1014 694 l 839 129 l 650 694 l 539 694 l 350 129 l 175 694 l 51 694 l 293 0 l 404 0 l 589 553 l 785 0 l 896 0 l 1138 694 z "},"x":{"ha":740,"x_min":0,"x_max":0,"o":"m 694 0 l 439 354 l 690 694 l 560 694 l 379 438 l 196 694 l 57 694 l 307 350 l 40 0 l 169 0 l 367 268 l 558 0 z "},"y":{"ha":743,"x_min":0,"x_max":0,"o":"m 719 694 l 600 694 l 438 256 l 388 118 l 344 242 l 171 694 l 44 694 l 335 1 l 299 -89 b 172 -201 264 -181 221 -201 b 60 -146 133 -201 92 -190 l 21 -240 b 174 -299 60 -282 104 -299 b 393 -117 276 -299 339 -253 z "},"ý":{"ha":743,"x_min":0,"x_max":0,"o":"m 417 1042 l 311 810 l 401 810 l 538 1042 z m 719 694 l 600 694 l 438 256 l 388 118 l 344 242 l 171 694 l 44 694 l 335 1 l 299 -89 b 172 -201 264 -181 221 -201 b 60 -146 133 -201 92 -190 l 21 -240 b 174 -299 60 -282 104 -299 b 393 -117 276 -299 339 -253 z "},"ÿ":{"ha":743,"x_min":0,"x_max":0,"o":"m 244 967 b 165 888 197 967 165 935 b 244 808 165 840 197 808 b 324 888 292 808 324 840 b 244 967 324 935 292 967 z m 514 967 b 435 888 467 967 435 935 b 514 808 435 840 467 808 b 593 888 561 808 593 840 b 514 967 593 935 561 967 z m 719 694 l 600 694 l 438 256 l 388 118 l 344 242 l 171 694 l 44 694 l 335 1 l 299 -89 b 172 -201 264 -181 221 -201 b 60 -146 133 -201 92 -190 l 21 -240 b 174 -299 60 -282 104 -299 b 393 -117 276 -299 339 -253 z "},"z":{"ha":742,"x_min":0,"x_max":0,"o":"m 79 0 l 665 0 l 665 96 l 339 96 l 204 93 l 290 183 l 654 610 l 654 694 l 83 694 l 83 599 l 407 599 l 531 601 l 443 511 l 79 85 z "},"ź":{"ha":742,"x_min":0,"x_max":0,"o":"m 388 1042 l 282 810 l 372 810 l 508 1042 z m 79 0 l 665 0 l 665 96 l 339 96 l 204 93 l 290 183 l 654 610 l 654 694 l 83 694 l 83 599 l 407 599 l 531 601 l 443 511 l 79 85 z "},"ž":{"ha":742,"x_min":0,"x_max":0,"o":"m 569 1042 l 468 1042 l 350 888 l 232 1042 l 131 1042 l 286 810 l 414 810 z m 79 0 l 665 0 l 665 96 l 339 96 l 204 93 l 290 183 l 654 610 l 654 694 l 83 694 l 83 599 l 407 599 l 531 601 l 443 511 l 79 85 z "},"ż":{"ha":742,"x_min":0,"x_max":0,"o":"m 350 994 b 267 911 300 994 267 961 b 350 828 267 861 300 828 b 433 911 400 828 433 861 b 350 994 433 961 400 994 z m 79 0 l 665 0 l 665 96 l 339 96 l 204 93 l 290 183 l 654 610 l 654 694 l 83 694 l 83 599 l 407 599 l 531 601 l 443 511 l 79 85 z "},"ﬁ":{"ha":915,"x_min":0,"x_max":0,"o":"m 421 919 b 500 899 453 919 478 913 l 529 989 b 411 1021 504 1010 460 1021 b 183 811 258 1021 183 935 l 183 694 l 44 694 l 44 599 l 183 599 l 183 0 l 294 0 l 294 599 l 526 599 l 526 694 l 294 694 l 294 800 b 421 919 294 883 340 919 z m 731 994 b 647 911 681 994 647 961 b 731 828 647 861 681 828 b 814 911 781 828 814 861 b 731 994 814 961 781 994 z m 675 0 l 786 0 l 786 694 l 675 694 z "},"ﬂ":{"ha":971,"x_min":0,"x_max":0,"o":"m 421 919 b 500 899 453 919 478 913 l 529 989 b 411 1021 504 1010 460 1021 b 183 811 258 1021 183 935 l 183 694 l 44 694 l 44 599 l 183 599 l 183 0 l 294 0 l 294 599 l 526 599 l 526 694 l 294 694 l 294 800 b 421 919 294 883 340 919 z m 856 93 b 781 186 799 93 781 115 l 781 1014 l 669 1014 l 669 172 b 836 -14 669 46 724 -14 b 939 6 872 -14 910 -7 l 957 113 b 856 93 917 97 893 93 z "},"ª":{"ha":531,"x_min":0,"x_max":0,"o":"m 474 522 b 431 565 450 522 431 532 l 431 760 b 238 924 431 868 363 924 b 35 804 126 924 56 875 l 103 764 b 233 849 128 829 175 849 b 336 757 299 849 336 814 l 336 738 l 207 715 b 26 569 82 693 26 646 b 179 454 26 494 86 454 b 353 524 257 454 321 481 b 446 454 364 478 397 454 b 500 467 467 454 485 460 l 507 528 b 474 522 499 524 489 522 z m 204 529 b 124 581 151 529 124 542 b 238 656 124 624 160 640 l 336 675 l 336 622 b 204 529 336 563 264 529 z m 36 279 l 481 279 l 481 353 l 36 353 z "},"º":{"ha":500,"x_min":0,"x_max":0,"o":"m 250 454 b 468 689 393 454 468 542 b 250 924 468 836 393 924 b 32 689 107 924 32 836 b 250 454 32 542 107 454 z m 250 531 b 129 689 168 531 129 589 b 250 849 129 789 168 849 b 371 689 332 849 371 789 b 250 531 371 589 332 531 z m 50 279 l 450 279 l 450 353 l 50 353 z "},"π":{"ha":1022,"x_min":0,"x_max":0,"o":"m 965 601 l 965 694 l 43 694 l 43 601 l 232 601 l 232 0 l 343 0 l 343 601 l 643 601 l 643 174 b 883 0 643 42 708 0 l 906 93 b 754 189 800 93 754 115 l 754 601 z "},"⁄":{"ha":344,"x_min":0,"x_max":0,"o":"m -214 0 l -104 0 l 558 917 l 449 917 z "},"½":{"ha":1188,"x_min":0,"x_max":0,"o":"m 165 721 l 165 372 l 263 372 l 263 924 l 176 924 b 14 824 147 879 64 833 l 14 740 b 168 821 71 750 126 782 b 165 721 167 785 165 747 z m 785 917 l 122 0 l 232 0 l 894 917 z m 950 74 b 861 69 931 74 878 71 l 861 71 b 933 119 886 88 910 103 b 1135 376 1072 215 1135 296 b 931 553 1135 468 1067 553 b 719 374 808 553 726 486 l 807 343 b 926 472 810 424 854 472 b 1033 371 996 472 1033 429 b 863 154 1033 307 996 260 b 735 61 819 121 778 92 l 735 -6 l 1147 -6 l 1147 74 z "},"¼":{"ha":1094,"x_min":0,"x_max":0,"o":"m 165 721 l 165 372 l 263 372 l 263 924 l 176 924 b 14 824 147 879 64 833 l 14 740 b 168 821 71 750 126 782 b 165 721 167 785 165 747 z m 785 917 l 122 0 l 232 0 l 894 917 z m 968 201 l 968 546 l 863 546 l 610 183 l 610 132 l 886 132 l 886 -6 l 968 -6 l 968 132 l 1067 132 l 1067 201 z m 886 360 l 886 201 l 704 201 l 842 390 b 886 465 857 413 875 444 l 890 465 b 886 360 888 431 886 394 z "},"¾":{"ha":1261,"x_min":0,"x_max":0,"o":"m 251 931 b 50 799 153 931 74 889 l 140 767 b 246 850 151 822 189 850 b 340 765 306 850 340 821 b 242 682 340 713 307 682 l 213 682 l 213 613 l 246 613 b 354 535 318 613 354 586 b 246 444 354 479 311 444 b 126 539 175 444 138 475 l 33 497 b 247 364 63 407 135 364 b 456 521 368 364 456 426 b 333 649 456 606 389 647 l 333 650 b 443 781 381 653 443 696 b 251 931 443 869 374 931 z m 289 0 l 399 0 l 1061 917 l 951 917 z m 1233 201 l 1135 201 l 1135 546 l 1029 546 l 776 183 l 776 132 l 1053 132 l 1053 -6 l 1135 -6 l 1135 132 l 1233 132 z m 871 201 l 1008 390 b 1053 465 1024 413 1042 444 l 1057 465 b 1053 360 1054 431 1053 394 l 1053 201 z "},"➀":{"ha":1264,"x_min":0,"x_max":0,"o":"m 632 972 b 113 458 321 972 113 765 b 632 -56 113 151 321 -56 b 1151 458 943 -56 1151 151 b 632 972 1151 765 943 972 z m 632 28 b 204 458 378 28 204 201 b 632 889 204 715 378 889 b 1060 458 886 889 1060 715 b 632 28 1060 201 886 28 z m 461 640 l 461 557 b 615 638 518 567 574 599 b 613 538 614 601 613 564 l 613 189 l 710 189 l 710 740 l 624 740 b 461 640 594 696 511 650 z "},"➁":{"ha":1264,"x_min":0,"x_max":0,"o":"m 632 -56 b 1151 458 943 -56 1151 151 b 632 972 1151 765 943 972 b 113 458 321 972 113 765 b 632 -56 113 151 321 -56 z m 632 28 b 204 458 378 28 204 201 b 632 889 204 715 378 889 b 1060 458 886 889 1060 715 b 632 28 1060 201 886 28 z m 432 203 l 844 203 l 844 282 l 647 282 b 558 278 628 282 575 279 l 558 279 b 631 328 583 296 607 311 b 832 585 769 424 832 504 b 628 761 832 676 764 761 b 417 582 506 761 424 694 l 504 551 b 624 681 507 632 551 681 b 731 579 693 681 731 638 b 560 363 731 515 693 468 b 432 269 517 329 475 300 z "},"➂":{"ha":1264,"x_min":0,"x_max":0,"o":"m 632 -56 b 1151 458 943 -56 1151 151 b 632 972 1151 765 943 972 b 113 458 321 972 113 765 b 632 -56 113 151 321 -56 z m 632 28 b 204 458 378 28 204 201 b 632 889 204 715 378 889 b 1060 458 886 889 1060 715 b 632 28 1060 201 886 28 z m 642 743 b 440 611 543 743 464 701 l 531 579 b 636 663 542 635 579 663 b 731 578 696 663 731 633 b 632 494 731 525 697 494 l 603 494 l 603 425 l 636 425 b 744 347 708 425 744 399 b 636 257 744 292 701 257 b 517 351 565 257 528 288 l 424 310 b 638 176 453 219 525 176 b 846 333 758 176 846 239 b 724 461 846 418 779 460 l 724 463 b 833 593 771 465 833 508 b 642 743 833 682 764 743 z "},"➃":{"ha":1264,"x_min":0,"x_max":0,"o":"m 632 -56 b 1151 458 943 -56 1151 151 b 632 972 1151 765 943 972 b 113 458 321 972 113 765 b 632 -56 113 151 321 -56 z m 632 28 b 204 458 378 28 204 201 b 632 889 204 715 378 889 b 1060 458 886 889 1060 715 b 632 28 1060 201 886 28 z m 826 396 l 728 396 l 728 740 l 622 740 l 369 378 l 369 326 l 646 326 l 646 189 l 728 189 l 728 326 l 826 326 z m 464 396 l 601 585 b 646 660 617 607 635 639 l 650 660 b 646 554 647 625 646 589 l 646 396 z "},"➄":{"ha":1264,"x_min":0,"x_max":0,"o":"m 632 -56 b 1151 458 943 -56 1151 151 b 632 972 1151 765 943 972 b 113 458 321 972 113 765 b 632 -56 113 151 321 -56 z m 632 28 b 204 458 378 28 204 201 b 632 889 204 715 378 889 b 1060 458 886 889 1060 715 b 632 28 1060 201 886 28 z m 660 532 b 525 483 581 532 549 513 l 524 483 b 531 522 526 493 529 504 l 542 647 l 813 647 l 813 728 l 467 728 l 442 406 l 517 406 b 633 460 538 440 572 460 b 746 357 710 460 746 424 b 629 250 746 293 699 250 b 506 338 557 250 519 282 l 418 288 b 632 169 458 203 529 169 b 842 358 751 169 842 235 b 660 532 842 457 771 532 z "},"➅":{"ha":1264,"x_min":0,"x_max":0,"o":"m 632 -56 b 1151 458 943 -56 1151 151 b 632 972 1151 765 943 972 b 113 458 321 972 113 765 b 632 -56 113 151 321 -56 z m 632 28 b 204 458 378 28 204 201 b 632 889 204 715 378 889 b 1060 458 886 889 1060 715 b 632 28 1060 201 886 28 z m 628 176 b 833 353 754 176 833 243 b 642 528 833 458 758 528 b 494 450 575 528 532 506 l 493 450 l 493 468 b 638 664 493 569 540 664 b 743 588 697 664 729 632 l 824 629 b 639 743 792 708 732 743 b 401 460 504 743 401 649 b 628 176 401 275 483 176 z m 629 254 b 517 353 561 254 517 293 b 629 451 517 403 561 451 b 742 353 699 451 742 413 b 629 254 742 290 699 254 z "},"➆":{"ha":1264,"x_min":0,"x_max":0,"o":"m 632 972 b 113 458 321 972 113 765 b 632 -56 113 151 321 -56 b 1151 458 943 -56 1151 151 b 632 972 1151 765 943 972 z m 632 28 b 204 458 378 28 204 201 b 632 889 204 715 378 889 b 1060 458 886 889 1060 715 b 632 28 1060 201 886 28 z m 433 638 l 761 638 b 571 167 626 499 571 336 l 668 167 b 854 638 668 353 718 496 l 854 718 l 433 718 z "},"➇":{"ha":1264,"x_min":0,"x_max":0,"o":"m 632 -56 b 1151 458 943 -56 1151 151 b 632 972 1151 765 943 972 b 113 458 321 972 113 765 b 632 -56 113 151 321 -56 z m 632 28 b 204 458 378 28 204 201 b 632 889 204 715 378 889 b 1060 458 886 889 1060 715 b 632 28 1060 201 886 28 z m 632 742 b 433 593 510 742 433 685 b 531 469 433 533 469 489 l 531 468 b 413 333 457 447 413 400 b 632 176 413 236 499 176 b 851 333 767 176 851 236 b 733 468 851 401 807 447 l 733 469 b 831 593 796 490 831 535 b 632 742 831 685 754 742 z m 632 668 b 735 588 696 668 735 638 b 632 506 735 538 694 506 b 529 588 569 506 529 538 b 632 668 529 638 568 668 z m 632 251 b 511 340 558 251 511 286 b 632 431 511 396 560 431 b 753 340 706 431 753 396 b 632 251 753 286 706 251 z "},"➈":{"ha":1264,"x_min":0,"x_max":0,"o":"m 632 -56 b 1151 458 943 -56 1151 151 b 632 972 1151 765 943 972 b 113 458 321 972 113 765 b 632 -56 113 151 321 -56 z m 632 28 b 204 458 378 28 204 201 b 632 889 204 715 378 889 b 1060 458 886 889 1060 715 b 632 28 1060 201 886 28 z m 635 743 b 426 563 506 743 426 674 b 626 389 426 456 500 389 b 767 463 688 389 753 426 l 768 463 b 769 435 769 454 769 444 b 633 254 769 349 736 254 b 519 335 563 254 532 285 l 428 296 b 632 176 458 215 529 176 b 861 458 774 176 861 274 b 635 743 861 640 776 743 z m 636 664 b 750 564 703 664 750 624 b 635 465 750 508 703 465 b 522 564 564 465 522 503 b 636 664 522 626 564 664 z "},"₀":{"ha":550,"x_min":0,"x_max":0,"o":"m 275 -271 b 503 13 425 -271 503 -174 b 275 296 503 199 425 296 b 47 13 125 296 47 199 b 275 -271 47 -174 125 -271 z m 275 -192 b 144 13 186 -192 144 -122 b 275 217 144 147 186 217 b 406 13 364 217 406 147 b 275 -192 406 -122 364 -192 z "},"₁":{"ha":336,"x_min":0,"x_max":0,"o":"m 176 289 b 14 189 147 244 64 199 l 14 106 b 168 186 71 115 126 147 b 165 86 167 150 165 113 l 165 -262 l 263 -262 l 263 289 z "},"₂":{"ha":507,"x_min":0,"x_max":0,"o":"m 54 -262 l 467 -262 l 467 -183 l 269 -183 b 181 -187 250 -183 197 -186 l 181 -186 b 253 -137 206 -169 229 -154 b 454 119 392 -42 454 39 b 250 296 454 211 386 296 b 39 117 128 296 46 229 l 126 86 b 246 215 129 167 174 215 b 353 114 315 215 353 172 b 182 -103 353 50 315 3 b 54 -196 139 -136 97 -165 z "},"₃":{"ha":503,"x_min":0,"x_max":0,"o":"m 251 296 b 50 164 153 296 74 254 l 140 132 b 246 215 151 188 189 215 b 340 131 306 215 340 186 b 242 47 340 78 307 47 l 213 47 l 213 -22 l 246 -22 b 354 -100 318 -22 354 -49 b 246 -190 354 -156 311 -190 b 126 -96 175 -190 138 -160 l 33 -137 b 247 -271 63 -228 135 -271 b 456 -114 368 -271 456 -208 b 333 14 456 -29 389 13 l 333 15 b 443 146 381 18 443 61 b 251 296 443 235 374 296 z "},"₄":{"ha":497,"x_min":0,"x_max":0,"o":"m 469 -56 l 371 -56 l 371 289 l 265 289 l 13 -74 l 13 -125 l 289 -125 l 289 -262 l 371 -262 l 371 -125 l 469 -125 z m 107 -56 l 244 133 b 289 208 260 156 278 188 l 293 208 b 289 103 290 174 289 138 l 289 -56 z "},"₅":{"ha":500,"x_min":0,"x_max":0,"o":"m 278 93 b 143 44 199 93 167 74 l 142 44 b 149 83 144 54 147 65 l 160 208 l 431 208 l 431 289 l 85 289 l 60 -33 l 135 -33 b 251 21 156 1 190 21 b 364 -82 328 21 364 -15 b 247 -189 364 -146 317 -189 b 124 -101 175 -189 138 -157 l 36 -151 b 250 -269 76 -236 147 -269 b 460 -81 369 -269 460 -204 b 278 93 460 18 389 93 z "},"₆":{"ha":522,"x_min":0,"x_max":0,"o":"m 274 -271 b 479 -94 400 -271 479 -204 b 288 81 479 11 404 81 b 140 3 221 81 178 58 l 139 3 l 139 21 b 283 217 139 122 186 217 b 389 140 343 217 375 185 l 469 182 b 285 296 438 261 378 296 b 47 13 150 296 47 201 b 274 -271 47 -172 129 -271 z m 275 -193 b 163 -94 207 -193 163 -154 b 275 4 163 -44 207 4 b 388 -94 344 4 388 -35 b 275 -193 388 -157 344 -193 z "},"₇":{"ha":433,"x_min":0,"x_max":0,"o":"m 4 289 l 4 208 l 332 208 b 142 -262 197 69 142 -93 l 239 -262 b 425 208 239 -76 289 67 l 425 289 z "},"₈":{"ha":535,"x_min":0,"x_max":0,"o":"m 267 294 b 68 146 144 294 68 238 b 165 22 68 86 104 42 l 165 21 b 47 -114 92 0 47 -47 b 267 -271 47 -211 133 -271 b 486 -114 401 -271 486 -211 b 368 21 486 -46 442 0 l 368 22 b 465 146 431 43 465 88 b 267 294 465 238 389 294 z m 267 221 b 369 140 331 221 369 190 b 267 58 369 90 329 58 b 164 140 204 58 164 90 b 267 221 164 190 203 221 z m 267 -196 b 146 -107 193 -196 146 -161 b 267 -17 146 -51 194 -17 b 388 -107 340 -17 388 -51 b 267 -196 388 -161 340 -196 z "},"₉":{"ha":529,"x_min":0,"x_max":0,"o":"m 256 296 b 47 115 126 296 47 226 b 247 -58 47 8 121 -58 b 388 15 308 -58 374 -21 l 389 15 b 390 -12 390 7 390 -3 b 254 -193 390 -99 357 -193 b 140 -112 183 -193 153 -162 l 49 -151 b 253 -271 79 -232 150 -271 b 482 11 394 -271 482 -174 b 256 296 482 193 397 296 z m 257 217 b 371 117 324 217 371 176 b 256 18 371 61 324 18 b 143 117 185 18 143 56 b 257 217 143 179 185 217 z "},"⁰":{"ha":550,"x_min":0,"x_max":0,"o":"m 275 454 b 503 738 425 454 503 551 b 275 1021 503 924 425 1021 b 47 738 125 1021 47 924 b 275 454 47 551 125 454 z m 275 533 b 144 738 186 533 144 603 b 275 942 144 872 186 942 b 406 738 364 942 406 872 b 275 533 406 603 364 533 z "},"¹":{"ha":336,"x_min":0,"x_max":0,"o":"m 176 1014 b 14 914 147 969 64 924 l 14 831 b 168 911 71 840 126 872 b 165 811 167 875 165 838 l 165 463 l 263 463 l 263 1014 z "},"²":{"ha":507,"x_min":0,"x_max":0,"o":"m 54 463 l 467 463 l 467 542 l 269 542 b 181 538 250 542 197 539 l 181 539 b 253 588 206 556 229 571 b 454 844 392 683 454 764 b 250 1021 454 936 386 1021 b 39 842 128 1021 46 954 l 126 811 b 246 940 129 892 174 940 b 353 839 315 940 353 897 b 182 622 353 775 315 728 b 54 529 139 589 97 560 z "},"³":{"ha":503,"x_min":0,"x_max":0,"o":"m 251 1021 b 50 889 153 1021 74 979 l 140 857 b 246 940 151 913 189 940 b 340 856 306 940 340 911 b 242 772 340 803 307 772 l 213 772 l 213 703 l 246 703 b 354 625 318 703 354 676 b 246 535 354 569 311 535 b 126 629 175 535 138 565 l 33 588 b 247 454 63 497 135 454 b 456 611 368 454 456 517 b 333 739 456 696 389 738 l 333 740 b 443 871 381 743 443 786 b 251 1021 443 960 374 1021 z "},"⁴":{"ha":497,"x_min":0,"x_max":0,"o":"m 469 669 l 371 669 l 371 1014 l 265 1014 l 13 651 l 13 600 l 289 600 l 289 463 l 371 463 l 371 600 l 469 600 z m 107 669 l 244 858 b 289 933 260 881 278 913 l 293 933 b 289 828 290 899 289 863 l 289 669 z "},"⁵":{"ha":500,"x_min":0,"x_max":0,"o":"m 278 818 b 143 769 199 818 167 799 l 142 769 b 149 808 144 779 147 790 l 160 933 l 431 933 l 431 1014 l 85 1014 l 60 692 l 135 692 b 251 746 156 726 190 746 b 364 643 328 746 364 710 b 247 536 364 579 317 536 b 124 624 175 536 138 568 l 36 574 b 250 456 76 489 147 456 b 460 644 369 456 460 521 b 278 818 460 743 389 818 z "},"⁶":{"ha":522,"x_min":0,"x_max":0,"o":"m 274 454 b 479 631 400 454 479 521 b 288 806 479 736 404 806 b 140 728 221 806 178 783 l 139 728 l 139 746 b 283 942 139 847 186 942 b 389 865 343 942 375 910 l 469 907 b 285 1021 438 986 378 1021 b 47 738 150 1021 47 926 b 274 454 47 553 129 454 z m 275 532 b 163 631 207 532 163 571 b 275 729 163 681 207 729 b 388 631 344 729 388 690 b 275 532 388 568 344 532 z "},"⁷":{"ha":433,"x_min":0,"x_max":0,"o":"m 4 1014 l 4 933 l 332 933 b 142 463 197 794 142 632 l 239 463 b 425 933 239 649 289 792 l 425 1014 z "},"⁸":{"ha":535,"x_min":0,"x_max":0,"o":"m 267 1019 b 68 871 144 1019 68 963 b 165 747 68 811 104 767 l 165 746 b 47 611 92 725 47 678 b 267 454 47 514 133 454 b 486 611 401 454 486 514 b 368 746 486 679 442 725 l 368 747 b 465 871 431 768 465 813 b 267 1019 465 963 389 1019 z m 267 946 b 369 865 331 946 369 915 b 267 783 369 815 329 783 b 164 865 204 783 164 815 b 267 946 164 915 203 946 z m 267 529 b 146 618 193 529 146 564 b 267 708 146 674 194 708 b 388 618 340 708 388 674 b 267 529 388 564 340 529 z "},"⁹":{"ha":529,"x_min":0,"x_max":0,"o":"m 256 1021 b 47 840 126 1021 47 951 b 247 667 47 733 121 667 b 388 740 308 667 374 704 l 389 740 b 390 713 390 732 390 722 b 254 532 390 626 357 532 b 140 613 183 532 153 563 l 49 574 b 253 454 79 493 150 454 b 482 736 394 454 482 551 b 256 1021 482 918 397 1021 z m 257 942 b 371 842 324 942 371 901 b 256 743 371 786 324 743 b 143 842 185 743 143 781 b 257 942 143 904 185 942 z "},"*":{"ha":794,"x_min":0,"x_max":0,"o":"m 449 671 l 563 693 l 721 746 l 694 831 l 533 781 l 429 732 l 443 846 l 443 1014 l 351 1014 l 351 846 l 365 732 l 261 781 l 100 831 l 74 746 l 232 693 l 346 671 l 267 586 l 169 450 l 242 397 l 342 532 l 397 633 l 453 532 l 553 397 l 625 450 l 528 586 z "},"\\":{"ha":608,"x_min":0,"x_max":0,"o":"m 40 1014 l 465 -97 l 569 -97 l 144 1014 z "},"·":{"ha":314,"x_min":0,"x_max":0,"o":"m 157 583 b 67 493 103 583 67 547 b 157 403 67 439 103 403 b 247 493 211 403 247 439 b 157 583 247 547 211 583 z "},"•":{"ha":597,"x_min":0,"x_max":0,"o":"m 299 636 b 125 468 199 636 125 565 b 299 300 125 371 199 300 b 472 468 400 300 472 371 b 299 636 472 565 400 636 z "},":":{"ha":411,"x_min":0,"x_max":0,"o":"m 206 708 b 115 618 151 708 115 672 b 206 528 115 564 151 528 b 296 618 260 528 296 564 b 206 708 296 672 260 708 z m 206 167 b 115 76 151 167 115 131 b 206 -14 115 22 151 -14 b 296 76 260 -14 296 22 b 206 167 296 131 260 167 z "},",":{"ha":369,"x_min":0,"x_max":0,"o":"m 185 167 b 94 74 135 167 94 124 b 171 -14 94 14 138 -14 b 210 -4 193 -14 203 -10 l 215 -7 b 79 -149 203 -65 154 -124 l 138 -203 b 289 32 243 -153 289 -61 b 185 167 289 111 250 167 z "},"…":{"ha":1194,"x_min":0,"x_max":0,"o":"m 194 167 b 104 76 140 167 104 131 b 194 -14 104 22 140 -14 b 285 76 249 -14 285 22 b 194 167 285 131 249 167 z m 597 167 b 507 76 543 167 507 131 b 597 -14 507 22 543 -14 b 688 76 651 -14 688 22 b 597 167 688 131 651 167 z m 1000 167 b 910 76 946 167 910 131 b 1000 -14 910 22 946 -14 b 1090 76 1054 -14 1090 22 b 1000 167 1090 131 1054 167 z "},"!":{"ha":378,"x_min":0,"x_max":0,"o":"m 247 917 l 131 917 l 131 519 l 147 289 l 231 289 l 247 519 z m 189 167 b 99 76 135 167 99 131 b 189 -14 99 22 135 -14 b 279 76 243 -14 279 22 b 189 167 279 131 243 167 z "},"¡":{"ha":367,"x_min":0,"x_max":0,"o":"m 183 528 b 274 618 238 528 274 564 b 183 708 274 672 238 708 b 93 618 129 708 93 672 b 183 528 93 564 129 528 z m 125 -222 l 242 -222 l 242 175 l 225 406 l 142 406 l 125 175 z "},"#":{"ha":889,"x_min":0,"x_max":0,"o":"m 860 579 l 860 664 l 688 664 l 729 917 l 635 917 l 593 664 l 363 664 l 404 917 l 310 917 l 268 664 l 89 664 l 89 579 l 254 579 l 214 344 l 28 344 l 28 260 l 200 260 l 157 0 l 251 0 l 294 260 l 525 260 l 482 0 l 576 0 l 619 260 l 799 260 l 799 344 l 633 344 l 674 579 z m 539 344 l 308 344 l 349 579 l 579 579 z "},".":{"ha":369,"x_min":0,"x_max":0,"o":"m 185 167 b 94 76 131 167 94 131 b 185 -14 94 22 131 -14 b 275 76 239 -14 275 22 b 185 167 275 131 239 167 z "},"?":{"ha":753,"x_min":0,"x_max":0,"o":"m 379 931 b 54 694 204 931 85 836 l 153 638 b 371 826 167 754 249 826 b 567 681 503 826 567 768 b 307 497 567 575 492 525 l 307 289 l 422 289 l 422 438 b 683 694 567 453 683 532 b 379 931 683 840 557 931 z m 363 167 b 272 76 308 167 272 131 b 363 -14 272 22 308 -14 b 453 76 417 -14 453 22 b 363 167 453 131 417 167 z "},"¿":{"ha":746,"x_min":0,"x_max":0,"o":"m 386 528 b 476 618 440 528 476 564 b 386 708 476 672 440 708 b 296 618 332 708 296 672 b 386 528 296 564 332 528 z m 369 -236 b 694 0 544 -236 664 -142 l 596 57 b 378 -132 582 -60 500 -132 b 182 14 246 -132 182 -74 b 442 197 182 119 257 169 l 442 406 l 326 406 l 326 257 b 65 0 182 242 65 163 b 369 -236 65 -146 192 -236 z "},"\"":{"ha":560,"x_min":0,"x_max":0,"o":"m 236 958 l 114 958 l 114 615 l 200 615 z m 471 958 l 349 958 l 349 615 l 435 615 z "},"'":{"ha":325,"x_min":0,"x_max":0,"o":"m 236 958 l 114 958 l 114 615 l 200 615 z "},";":{"ha":411,"x_min":0,"x_max":0,"o":"m 214 528 b 304 618 268 528 304 564 b 214 708 304 672 268 708 b 124 618 160 708 124 672 b 214 528 124 564 160 528 z m 208 167 b 118 74 158 167 118 124 b 194 -14 118 14 161 -14 b 233 -4 217 -14 226 -10 l 239 -7 b 103 -149 226 -65 178 -124 l 161 -203 b 313 32 267 -153 313 -61 b 208 167 313 111 274 167 z "},"/":{"ha":608,"x_min":0,"x_max":0,"o":"m 568 1014 l 464 1014 l 39 -97 l 143 -97 z "},"_":{"ha":749,"x_min":0,"x_max":0,"o":"m 749 -135 l 0 -135 l 0 -239 l 749 -239 z "},"₍":{"ha":314,"x_min":0,"x_max":0,"o":"m 268 415 b 93 13 154 315 93 176 b 268 -390 93 -151 154 -290 l 324 -342 b 185 13 224 -242 185 -139 b 324 367 185 164 224 267 z "},"₎":{"ha":314,"x_min":0,"x_max":0,"o":"m 46 415 l -10 367 b 129 13 90 267 129 164 b -10 -342 129 -139 90 -242 l 46 -390 b 221 13 160 -290 221 -151 b 46 415 221 176 160 315 z "},"{":{"ha":488,"x_min":0,"x_max":0,"o":"m 299 -99 l 299 207 b 140 390 299 307 243 368 b 299 574 243 413 299 474 l 299 879 b 431 953 299 929 336 953 l 413 1043 b 194 871 253 1043 194 981 l 194 583 b 39 439 194 479 151 439 l 39 342 b 194 197 151 342 194 301 l 194 -90 b 413 -262 194 -200 253 -262 l 431 -172 b 299 -99 336 -172 299 -149 z "},"}":{"ha":488,"x_min":0,"x_max":0,"o":"m 293 583 l 293 871 b 75 1043 293 981 235 1043 l 57 953 b 189 879 151 953 189 929 l 189 574 b 347 390 189 474 244 413 b 189 207 244 368 189 307 l 189 -99 b 57 -172 189 -149 151 -172 l 75 -262 b 293 -90 235 -262 293 -200 l 293 197 b 449 342 293 301 336 342 l 449 439 b 293 583 336 439 293 479 z "},"[":{"ha":483,"x_min":0,"x_max":0,"o":"m 438 917 l 438 1014 l 121 1014 l 121 -233 l 438 -233 l 438 -136 l 225 -136 l 225 917 z "},"]":{"ha":483,"x_min":0,"x_max":0,"o":"m 363 1014 l 46 1014 l 46 917 l 258 917 l 258 -136 l 46 -136 l 46 -233 l 363 -233 z "},"(":{"ha":486,"x_min":0,"x_max":0,"o":"m 382 1043 b 85 390 186 874 85 651 b 382 -262 85 129 186 -93 l 446 -199 b 199 390 263 -31 199 136 b 446 979 199 644 263 811 z "},")":{"ha":486,"x_min":0,"x_max":0,"o":"m 104 1043 l 40 979 b 288 390 224 811 288 644 b 40 -199 288 136 224 -31 l 104 -262 b 401 390 300 -93 401 129 b 104 1043 401 651 300 874 z "},"⁽":{"ha":314,"x_min":0,"x_max":0,"o":"m 268 1140 b 93 738 154 1040 93 901 b 268 335 93 574 154 435 l 324 383 b 185 738 224 483 185 586 b 324 1092 185 889 224 992 z "},"⁾":{"ha":314,"x_min":0,"x_max":0,"o":"m 46 1140 l -10 1092 b 129 738 90 992 129 889 b -10 383 129 586 90 483 l 46 335 b 221 738 160 435 221 574 b 46 1140 221 901 160 1040 z "},"—":{"ha":1408,"x_min":0,"x_max":0,"o":"m 1294 415 l 114 415 l 114 311 l 1294 311 z "},"–":{"ha":922,"x_min":0,"x_max":0,"o":"m 808 415 l 114 415 l 114 311 l 808 311 z "},"-":{"ha":708,"x_min":0,"x_max":0,"o":"m 583 421 l 125 421 l 125 306 l 583 306 z "},"­":{"ha":708,"x_min":0,"x_max":0,"o":"m 583 421 l 125 421 l 125 306 l 583 306 z "},"«":{"ha":685,"x_min":0,"x_max":0,"o":"m 367 640 l 246 640 l 71 368 l 246 96 l 367 96 l 189 368 z m 613 640 l 492 640 l 317 368 l 492 96 l 613 96 l 435 368 z "},"»":{"ha":683,"x_min":0,"x_max":0,"o":"m 71 640 l 249 368 l 71 96 l 192 96 l 367 368 l 192 640 z m 317 640 l 494 368 l 317 96 l 438 96 l 613 368 l 438 640 z "},"‹":{"ha":439,"x_min":0,"x_max":0,"o":"m 367 640 l 246 640 l 71 368 l 246 96 l 367 96 l 189 368 z "},"›":{"ha":439,"x_min":0,"x_max":0,"o":"m 72 640 l 250 368 l 72 96 l 193 96 l 368 368 l 193 640 z "},"„":{"ha":629,"x_min":0,"x_max":0,"o":"m 182 167 b 92 74 132 167 92 124 b 168 -14 92 14 135 -14 b 207 -4 190 -14 200 -10 l 213 -7 b 76 -149 200 -65 151 -124 l 135 -203 b 286 32 240 -153 286 -61 b 182 167 286 111 247 167 z m 443 167 b 353 74 393 167 353 124 b 429 -14 353 14 396 -14 b 468 -4 451 -14 461 -10 l 474 -7 b 338 -149 461 -65 413 -124 l 396 -203 b 547 32 501 -153 547 -61 b 443 167 547 111 508 167 z "},"“":{"ha":615,"x_min":0,"x_max":0,"o":"m 178 603 b 268 696 228 603 268 646 b 192 783 268 756 225 783 b 153 774 169 783 160 779 l 147 776 b 283 918 160 835 208 893 l 225 972 b 74 738 119 922 74 831 b 178 603 74 658 113 603 z m 439 603 b 529 696 489 603 529 646 b 453 783 529 756 486 783 b 414 774 431 783 421 779 l 408 776 b 544 918 421 835 469 893 l 486 972 b 335 738 381 922 335 831 b 439 603 335 658 374 603 z "},"”":{"ha":615,"x_min":0,"x_max":0,"o":"m 182 972 b 92 879 132 972 92 929 b 168 792 92 819 135 792 b 207 801 190 792 200 796 l 213 799 b 76 657 200 740 151 682 l 135 603 b 286 838 240 653 286 744 b 182 972 286 917 247 972 z m 443 972 b 353 879 393 972 353 929 b 429 792 353 819 396 792 b 468 801 451 792 461 796 l 474 799 b 338 657 461 740 413 682 l 396 603 b 547 838 501 653 547 744 b 443 972 547 917 508 972 z "},"‘":{"ha":354,"x_min":0,"x_max":0,"o":"m 178 603 b 268 696 228 603 268 646 b 192 783 268 756 225 783 b 153 774 169 783 160 779 l 147 776 b 283 918 160 835 208 893 l 225 972 b 74 738 119 922 74 831 b 178 603 74 658 113 603 z "},"’":{"ha":354,"x_min":0,"x_max":0,"o":"m 182 972 b 92 879 132 972 92 929 b 168 792 92 819 135 792 b 207 801 190 792 200 796 l 213 799 b 76 657 200 740 151 682 l 135 603 b 286 838 240 653 286 744 b 182 972 286 917 247 972 z "},"‚":{"ha":368,"x_min":0,"x_max":0,"o":"m 182 167 b 92 74 132 167 92 124 b 168 -14 92 14 135 -14 b 207 -4 190 -14 200 -10 l 213 -7 b 76 -149 200 -65 151 -124 l 135 -203 b 286 32 240 -153 286 -61 b 182 167 286 111 247 167 z "}," ":{"ha":474,"x_min":0,"x_max":0,"o":""},"€":{"ha":972,"x_min":0,"x_max":0,"o":"m 815 272 b 576 83 782 149 679 83 b 324 297 451 83 361 163 l 565 297 l 593 388 l 307 388 b 303 458 304 410 303 433 b 304 507 303 475 303 492 l 621 507 l 649 597 l 318 597 b 582 833 354 746 451 833 b 800 669 683 833 768 775 l 900 717 b 572 931 850 856 729 931 b 204 597 374 931 243 806 l 86 597 l 86 507 l 193 507 b 192 458 192 492 192 475 b 194 388 192 433 193 410 l 86 388 l 86 297 l 208 297 b 575 -14 251 103 379 -14 b 917 235 728 -14 865 78 z "},"¢":{"ha":788,"x_min":0,"x_max":0,"o":"m 722 192 l 622 226 b 468 79 599 142 547 92 l 468 614 b 610 474 536 601 585 553 l 715 524 b 468 707 671 628 590 696 l 468 833 l 375 833 l 375 706 b 94 347 199 682 94 551 b 375 -11 94 143 199 13 l 375 -139 l 468 -139 l 468 -12 b 722 192 594 0 682 75 z m 199 347 b 375 614 199 497 263 592 l 375 81 b 199 347 263 103 199 197 z "},"¤":{"ha":924,"x_min":0,"x_max":0,"o":"m 754 457 b 706 626 754 521 736 579 l 826 750 l 756 821 l 635 697 b 463 749 588 731 529 749 b 292 699 397 749 339 731 l 168 821 l 97 750 l 221 629 b 169 457 189 582 169 524 b 219 288 169 392 188 333 l 97 163 l 168 92 l 289 217 b 463 164 338 183 396 164 b 631 213 526 164 585 182 l 756 92 l 826 163 l 703 283 b 754 457 735 331 754 390 z m 463 264 b 281 457 357 264 281 344 b 463 649 281 568 357 649 b 643 457 567 649 643 568 b 463 264 643 344 567 264 z "},"$":{"ha":854,"x_min":0,"x_max":0,"o":"m 388 -139 l 483 -139 l 483 1 b 771 254 657 15 771 110 b 483 493 771 422 626 463 l 483 819 b 679 651 581 807 633 757 l 769 722 b 483 914 706 840 624 903 l 483 1056 l 388 1056 l 388 915 b 101 651 208 900 101 789 b 388 418 101 488 244 449 l 388 96 b 168 290 282 115 189 188 l 65 238 b 388 1 114 97 226 15 z m 388 513 b 207 660 288 536 207 569 b 388 821 207 751 268 810 z m 483 93 l 483 397 b 667 246 585 374 667 339 b 483 93 667 149 596 103 z "},"ƒ":{"ha":678,"x_min":0,"x_max":0,"o":"m 543 919 b 644 888 583 919 614 910 l 661 988 b 533 1021 617 1014 589 1021 b 325 811 417 1021 347 950 l 285 556 l 75 556 l 75 460 l 269 460 l 203 43 b 96 -76 190 -39 156 -76 b -6 -44 56 -76 25 -67 l -22 -144 b 106 -178 22 -171 50 -178 b 314 32 222 -178 292 -107 l 382 460 l 603 460 l 603 556 l 397 556 l 436 800 b 543 919 449 882 483 919 z "},"£":{"ha":869,"x_min":0,"x_max":0,"o":"m 728 213 b 614 75 726 115 693 75 b 463 136 553 75 508 104 b 486 246 478 172 486 210 b 451 386 486 293 476 336 l 657 386 l 657 476 l 396 476 b 389 486 393 479 392 483 b 308 667 326 575 308 615 b 493 829 308 764 379 829 b 679 661 603 829 653 767 l 775 714 b 499 931 735 860 644 931 b 206 649 328 931 206 813 b 279 476 206 596 225 549 l 119 476 l 119 386 l 349 386 b 403 240 388 329 403 288 b 396 183 403 221 400 201 b 233 229 353 208 303 229 b 69 106 129 229 69 171 b 222 -14 69 36 128 -14 b 417 67 308 -14 372 18 b 629 -14 478 26 544 -14 b 818 213 749 -14 818 64 z m 236 61 b 171 106 199 61 171 76 b 235 146 171 131 190 146 b 354 107 276 146 315 129 b 236 61 326 79 288 61 z "},"₺":{"ha":903,"x_min":0,"x_max":0,"o":"m 729 372 b 472 94 729 182 644 94 l 371 94 l 371 394 l 664 479 l 664 560 l 371 475 l 371 603 l 664 688 l 664 768 l 371 683 l 371 917 l 267 917 l 267 653 l 88 601 l 88 521 l 267 572 l 267 444 l 88 393 l 88 313 l 267 364 l 267 0 l 483 0 b 836 372 707 0 826 118 z "},"₽":{"ha":896,"x_min":0,"x_max":0,"o":"m 529 363 b 838 638 714 363 838 469 b 529 917 838 810 714 917 l 206 917 l 206 460 l 74 460 l 74 363 l 206 363 l 206 265 l 74 265 l 74 178 l 206 178 l 206 0 l 310 0 l 310 178 l 557 178 l 557 265 l 310 265 l 310 363 z m 310 815 l 513 815 b 721 638 657 815 721 754 b 513 460 721 521 657 460 l 310 460 z "},"¥":{"ha":861,"x_min":0,"x_max":0,"o":"m 506 407 l 814 917 l 685 917 l 499 581 l 432 442 l 429 442 l 363 579 l 176 917 l 47 917 l 356 407 l 294 413 l 115 413 l 115 329 l 382 329 l 382 225 l 115 225 l 115 149 l 382 149 l 382 0 l 479 0 l 479 149 l 747 149 l 747 225 l 479 225 l 479 329 l 747 329 l 747 413 l 567 413 z "},"≈":{"ha":839,"x_min":0,"x_max":0,"o":"m 265 688 b 82 611 186 688 142 665 l 82 510 b 265 586 138 563 183 586 b 578 489 371 586 467 489 b 757 565 646 489 701 513 l 757 667 b 579 590 693 606 640 590 b 265 688 478 590 383 688 z m 265 410 b 82 333 186 410 142 388 l 82 232 b 265 308 138 285 183 308 b 578 211 371 308 467 211 b 757 288 646 211 701 235 l 757 389 b 579 313 693 328 640 313 b 265 410 478 313 383 410 z "},"~":{"ha":750,"x_min":0,"x_max":0,"o":"m 690 533 l 585 533 b 499 431 574 471 547 431 b 242 533 414 431 365 533 b 60 326 129 533 71 463 l 165 326 b 251 429 176 389 203 429 b 510 326 339 429 383 326 b 690 533 618 326 679 397 z "},"÷":{"ha":839,"x_min":0,"x_max":0,"o":"m 419 800 b 329 710 365 800 329 764 b 419 619 329 656 365 619 b 510 710 474 619 510 656 b 419 800 510 764 474 800 z m 757 492 l 82 492 l 82 388 l 757 388 z m 419 257 b 329 167 365 257 329 221 b 419 76 329 113 365 76 b 510 167 474 76 510 113 b 419 257 510 221 474 257 z "},"=":{"ha":839,"x_min":0,"x_max":0,"o":"m 750 613 l 89 613 l 89 508 l 750 508 z m 750 335 l 89 335 l 89 231 l 750 231 z "},"₌":{"ha":531,"x_min":0,"x_max":0,"o":"m 74 61 l 457 61 l 457 135 l 74 135 z m 74 -114 l 457 -114 l 457 -40 l 74 -40 z "},"⁼":{"ha":531,"x_min":0,"x_max":0,"o":"m 74 786 l 457 786 l 457 860 l 74 860 z m 74 611 l 457 611 l 457 685 l 74 685 z "},">":{"ha":839,"x_min":0,"x_max":0,"o":"m 79 793 l 79 678 l 651 417 l 79 154 l 79 39 l 740 351 l 740 481 z "},"≥":{"ha":839,"x_min":0,"x_max":0,"o":"m 75 879 l 75 761 l 656 528 l 75 293 l 75 175 l 743 458 l 743 596 z m 75 0 l 743 0 l 743 104 l 75 104 z "},"∞":{"ha":1231,"x_min":0,"x_max":0,"o":"m 903 694 b 621 497 822 694 781 682 b 328 694 506 635 431 694 b 99 417 203 694 99 592 b 328 139 99 242 203 139 b 608 339 418 139 458 160 b 903 139 728 204 800 139 b 1132 417 1028 139 1132 242 b 903 694 1132 592 1028 694 z m 906 250 b 681 425 847 251 782 304 b 906 611 819 590 843 611 b 1024 431 967 611 1024 546 b 906 250 1024 315 967 249 z m 325 222 b 207 403 264 222 207 288 b 325 583 207 518 264 583 b 547 408 388 583 435 536 b 325 222 413 247 390 222 z "},"∫":{"ha":638,"x_min":0,"x_max":0,"o":"m 472 1053 b 264 843 343 1053 264 967 l 264 43 b 157 -76 264 -42 214 -76 b 56 -44 110 -76 81 -62 l 39 -144 b 167 -178 69 -162 94 -178 b 375 32 296 -178 375 -92 l 375 832 b 482 951 375 917 425 951 b 583 919 529 951 558 938 l 600 1019 b 472 1053 569 1038 544 1053 z "},"<":{"ha":839,"x_min":0,"x_max":0,"o":"m 760 793 l 99 481 l 99 351 l 760 39 l 760 154 l 188 417 l 760 678 z "},"≤":{"ha":839,"x_min":0,"x_max":0,"o":"m 764 879 l 96 596 l 96 458 l 764 175 l 764 293 l 183 528 l 764 761 z m 96 0 l 764 0 l 764 104 l 96 104 z "},"¬":{"ha":839,"x_min":0,"x_max":0,"o":"m 82 492 l 82 388 l 646 388 l 646 182 l 757 182 l 757 492 z "},"−":{"ha":839,"x_min":0,"x_max":0,"o":"m 757 492 l 82 492 l 82 388 l 757 388 z "},"₋":{"ha":475,"x_min":0,"x_max":0,"o":"m 38 -24 l 438 -24 l 438 44 l 38 44 z "},"⁻":{"ha":475,"x_min":0,"x_max":0,"o":"m 38 701 l 438 701 l 438 769 l 38 769 z "},"×":{"ha":839,"x_min":0,"x_max":0,"o":"m 725 674 l 651 747 l 419 515 l 186 747 l 113 674 l 346 442 l 113 208 l 186 135 l 419 368 l 651 135 l 725 208 l 493 442 z "},"≠":{"ha":839,"x_min":0,"x_max":0,"o":"m 750 515 l 750 613 l 571 613 l 642 754 l 532 754 l 461 613 l 89 613 l 89 515 l 413 515 l 318 328 l 89 328 l 89 231 l 269 231 l 199 89 l 308 89 l 379 231 l 750 231 l 750 328 l 428 328 l 522 515 z "},"∂":{"ha":861,"x_min":0,"x_max":0,"o":"m 392 931 b 140 833 292 931 210 894 l 197 751 b 389 836 256 810 304 836 b 658 479 561 836 653 733 b 400 608 601 561 508 608 b 90 297 221 608 90 479 b 406 -14 90 115 213 -14 b 761 458 636 -14 761 151 b 392 931 761 751 656 931 z m 406 86 b 201 299 272 86 201 167 b 399 510 201 428 272 510 b 650 335 535 510 615 440 b 406 86 624 172 542 86 z "},"%":{"ha":1189,"x_min":0,"x_max":0,"o":"m 276 931 b 56 678 142 931 56 831 b 276 425 56 525 142 425 b 497 678 411 425 497 525 b 276 931 497 831 411 931 z m 250 0 l 356 0 l 939 917 l 833 917 z m 276 843 b 399 678 356 843 399 782 b 276 513 399 574 356 513 b 154 678 197 513 154 574 b 276 843 154 782 197 843 z m 913 492 b 692 239 778 492 692 392 b 913 -14 692 86 778 -14 b 1133 239 1047 -14 1133 86 b 913 492 1133 392 1047 492 z m 913 404 b 1035 239 992 404 1035 343 b 913 74 1035 135 992 74 b 790 239 833 74 790 135 b 913 404 790 343 833 404 z "},"‰":{"ha":1728,"x_min":0,"x_max":0,"o":"m 276 931 b 56 678 142 931 56 831 b 276 425 56 525 142 425 b 497 678 411 425 497 525 b 276 931 497 831 411 931 z m 250 0 l 356 0 l 939 917 l 833 917 z m 276 843 b 399 678 356 843 399 782 b 276 513 399 574 356 513 b 154 678 197 513 154 574 b 276 843 154 782 197 843 z m 913 492 b 692 239 778 492 692 392 b 913 -14 692 86 778 -14 b 1133 239 1047 -14 1133 86 b 913 492 1133 392 1047 492 z m 1451 492 b 1231 239 1317 492 1231 392 b 1451 -14 1231 86 1317 -14 b 1672 239 1586 -14 1672 86 b 1451 492 1672 392 1586 492 z m 913 404 b 1035 239 992 404 1035 343 b 913 74 1035 135 992 74 b 790 239 833 74 790 135 b 913 404 790 343 833 404 z m 1451 404 b 1574 239 1531 404 1574 343 b 1451 74 1574 135 1531 74 b 1329 239 1372 74 1329 135 b 1451 404 1329 343 1372 404 z "},"+":{"ha":839,"x_min":0,"x_max":0,"o":"m 757 492 l 472 492 l 472 783 l 368 783 l 368 492 l 82 492 l 82 388 l 368 388 l 368 94 l 472 94 l 472 388 l 757 388 z "},"₊":{"ha":475,"x_min":0,"x_max":0,"o":"m 438 44 l 278 44 l 278 211 l 199 211 l 199 44 l 38 44 l 38 -24 l 199 -24 l 199 -190 l 278 -190 l 278 -24 l 438 -24 z "},"±":{"ha":839,"x_min":0,"x_max":0,"o":"m 472 603 l 472 889 l 368 889 l 368 603 l 82 603 l 82 499 l 368 499 l 368 214 l 472 214 l 472 499 l 757 499 l 757 603 z m 82 0 l 757 0 l 757 104 l 82 104 z "},"⁺":{"ha":475,"x_min":0,"x_max":0,"o":"m 438 769 l 278 769 l 278 936 l 199 936 l 199 769 l 38 769 l 38 701 l 199 701 l 199 535 l 278 535 l 278 701 l 438 701 z "},"∏":{"ha":972,"x_min":0,"x_max":0,"o":"m 846 917 l 126 917 l 126 -178 l 238 -178 l 238 813 l 735 813 l 735 -178 l 846 -178 z "},"√":{"ha":933,"x_min":0,"x_max":0,"o":"m 825 1136 l 468 221 l 431 103 l 393 217 l 235 596 l 28 596 l 28 492 l 172 492 l 374 0 l 483 0 l 933 1136 z "},"∑":{"ha":885,"x_min":0,"x_max":0,"o":"m 797 917 l 81 917 l 81 813 l 535 372 l 81 -74 l 81 -178 l 797 -178 l 797 -74 l 225 -74 l 674 363 l 674 382 l 226 813 l 797 813 z "},"µ":{"ha":849,"x_min":0,"x_max":0,"o":"m 618 694 l 618 256 b 396 83 600 147 517 83 b 232 269 296 83 232 126 l 232 694 l 121 694 l 121 -292 l 232 -292 l 232 49 b 376 -14 268 6 319 -14 b 629 113 497 -14 582 29 l 639 0 l 729 0 l 729 694 z "},"Ω":{"ha":1075,"x_min":0,"x_max":0,"o":"m 774 94 b 963 458 894 169 963 297 b 538 931 963 749 799 931 b 113 458 276 931 113 749 b 301 94 113 297 181 169 l 99 94 l 99 0 l 458 0 l 458 94 b 224 458 315 132 224 260 b 538 826 224 689 347 826 b 851 458 728 826 851 689 b 617 94 851 260 760 132 l 617 0 l 976 0 l 976 94 z "},"∆":{"ha":971,"x_min":0,"x_max":0,"o":"m 551 917 l 419 917 l 56 93 l 56 0 l 915 0 l 915 93 z m 485 832 l 814 93 l 157 93 z "},"∕":{"ha":344,"x_min":0,"x_max":0,"o":"m -214 0 l -104 0 l 558 917 l 449 917 z "},"∙":{"ha":314,"x_min":0,"x_max":0,"o":"m 157 564 b 67 474 103 564 67 528 b 157 383 67 419 103 383 b 247 474 211 383 247 419 b 157 564 247 528 211 564 z "},"↑":{"ha":1042,"x_min":0,"x_max":0,"o":"m 524 925 l 515 925 b 58 515 403 769 279 650 l 131 428 b 475 733 286 531 404 635 b 464 493 469 671 464 593 l 464 0 l 575 0 l 575 493 b 564 733 575 593 569 671 b 908 428 635 635 753 531 l 981 515 b 524 925 760 650 636 769 z "},"↗":{"ha":1042,"x_min":0,"x_max":0,"o":"m 868 813 l 861 819 b 208 811 643 785 432 774 l 197 703 b 696 711 354 678 550 682 b 521 550 647 669 590 621 l 172 201 l 250 124 l 599 472 b 760 647 669 542 718 599 b 751 149 731 501 726 306 l 860 160 b 868 813 822 383 833 594 z "},"→":{"ha":1042,"x_min":0,"x_max":0,"o":"m 583 921 l 496 849 b 801 504 599 693 703 575 b 561 515 739 510 661 515 l 68 515 l 68 404 l 561 404 b 801 415 661 404 739 410 b 496 71 703 344 599 226 l 583 -1 b 993 456 718 219 838 343 l 993 464 b 583 921 838 576 718 700 z "},"↘":{"ha":1042,"x_min":0,"x_max":0,"o":"m 847 799 l 739 810 b 747 311 714 653 718 457 b 586 486 706 360 657 417 l 238 835 l 160 757 l 508 408 b 683 247 578 338 635 289 b 185 256 538 276 342 281 l 196 147 b 849 139 419 185 631 174 l 856 146 b 847 799 821 364 810 575 z "},"↓":{"ha":1042,"x_min":0,"x_max":0,"o":"m 911 489 b 567 183 756 386 638 282 b 578 424 572 246 578 324 l 578 917 l 467 917 l 467 424 b 478 183 467 324 472 246 b 133 489 407 282 289 386 l 61 401 b 518 -8 282 267 406 147 l 526 -8 b 983 401 639 147 763 267 z "},"↙":{"ha":1042,"x_min":0,"x_max":0,"o":"m 358 247 b 533 408 407 289 464 338 l 882 757 l 804 835 l 456 486 b 294 311 385 417 336 360 b 303 810 324 457 328 653 l 194 799 b 186 146 232 575 221 364 l 193 139 b 846 147 411 174 622 185 l 857 256 b 358 247 700 281 504 276 z "},"←":{"ha":1042,"x_min":0,"x_max":0,"o":"m 974 404 l 974 515 l 481 515 b 240 504 381 515 303 510 b 546 849 339 575 443 693 l 458 921 b 49 464 324 700 204 576 l 49 456 b 458 -1 204 343 324 219 l 546 71 b 240 415 443 226 339 344 b 481 404 303 410 381 404 z "},"↖":{"ha":1042,"x_min":0,"x_max":0,"o":"m 521 550 b 346 711 451 621 394 669 b 844 703 492 682 688 678 l 833 811 b 181 819 610 774 399 785 l 174 813 b 182 160 208 594 219 383 l 290 149 b 282 647 315 306 311 501 b 443 472 324 599 372 542 l 792 124 l 869 201 z "},"↔":{"ha":1475,"x_min":0,"x_max":0,"o":"m 1017 946 l 919 888 b 1235 531 1029 722 1136 601 b 1050 540 1185 536 1126 540 l 425 540 b 240 531 349 540 290 536 b 556 888 339 601 446 722 l 458 946 b 49 489 324 725 204 601 l 49 481 b 458 24 204 368 324 244 l 556 82 b 240 439 446 247 339 368 b 425 429 290 433 349 429 l 1050 429 b 1235 439 1126 429 1185 433 b 919 82 1136 368 1029 247 l 1017 24 b 1426 481 1151 244 1271 368 l 1426 489 b 1017 946 1271 601 1151 725 z "},"↕":{"ha":1042,"x_min":0,"x_max":0,"o":"m 565 -39 b 575 146 571 11 575 69 l 575 771 b 565 956 575 847 571 906 b 922 640 636 857 757 750 l 981 738 b 524 1147 760 872 636 992 l 515 1147 b 58 738 403 992 279 872 l 117 640 b 474 956 282 750 403 857 b 464 771 468 906 464 847 l 464 146 b 474 -39 464 69 468 11 b 117 276 403 60 282 167 l 58 179 b 515 -231 279 44 403 -75 l 524 -231 b 981 179 636 -75 760 44 l 922 276 b 565 -39 757 167 636 60 z "},"●":{"ha":833,"x_min":0,"x_max":0,"o":"m 417 -14 b 778 347 622 -14 778 142 b 417 708 778 553 622 708 b 56 347 211 708 56 553 b 417 -14 56 142 211 -14 z "},"○":{"ha":833,"x_min":0,"x_max":0,"o":"m 417 -14 b 778 347 622 -14 778 142 b 417 708 778 553 622 708 b 56 347 211 708 56 553 b 417 -14 56 142 211 -14 z m 417 90 b 167 347 274 90 167 201 b 417 604 167 493 274 604 b 667 347 560 604 667 493 b 417 90 667 201 560 90 z "},"◆":{"ha":833,"x_min":0,"x_max":0,"o":"m 417 -8 l 785 360 l 417 728 l 49 360 z "},"◇":{"ha":833,"x_min":0,"x_max":0,"o":"m 417 -8 l 785 360 l 417 728 l 49 360 z m 417 149 l 206 360 l 417 571 l 628 360 z "},"◊":{"ha":815,"x_min":0,"x_max":0,"o":"m 474 917 l 342 917 l 67 458 l 342 0 l 474 0 l 750 458 z m 408 81 l 193 458 l 408 836 l 624 458 z "},"▪":{"ha":833,"x_min":0,"x_max":0,"o":"m 69 694 l 69 0 l 764 0 l 764 694 z "},"▫":{"ha":833,"x_min":0,"x_max":0,"o":"m 69 0 l 764 0 l 764 694 l 69 694 z m 181 96 l 181 599 l 653 599 l 653 96 z "},"❛":{"ha":1014,"x_min":0,"x_max":0,"o":"m 810 924 b 94 390 300 924 94 708 b 522 -14 94 140 208 -14 b 915 319 768 -14 915 110 b 524 653 915 529 769 653 b 247 572 386 653 319 626 l 238 579 b 875 833 338 738 503 833 z "},"❜":{"ha":1014,"x_min":0,"x_max":0,"o":"m 204 -187 b 919 346 714 -187 919 28 b 492 750 919 596 806 750 b 99 417 246 750 99 626 b 490 83 99 207 244 83 b 767 164 628 83 694 110 l 776 157 b 139 -97 676 -1 511 -97 z "},"❝":{"ha":1747,"x_min":0,"x_max":0,"o":"m 1257 653 b 981 572 1119 653 1053 626 l 971 579 b 1608 833 1071 738 1236 833 l 1543 924 b 843 533 1114 924 900 771 b 524 653 778 610 668 653 b 247 572 386 653 319 626 l 238 579 b 875 833 338 738 503 833 l 810 924 b 94 390 300 924 94 708 b 522 -14 94 140 208 -14 b 878 157 696 -14 819 47 b 1256 -14 938 49 1057 -14 b 1649 319 1501 -14 1649 110 b 1257 653 1649 529 1503 653 z "},"❞":{"ha":1747,"x_min":0,"x_max":0,"o":"m 1225 750 b 869 579 1051 750 928 689 b 492 750 810 688 690 750 b 99 417 246 750 99 626 b 490 83 99 207 244 83 b 767 164 628 83 694 110 l 776 157 b 139 -97 676 -1 511 -97 l 204 -187 b 904 203 633 -187 847 -35 b 1224 83 969 126 1079 83 b 1500 164 1361 83 1428 110 l 1510 157 b 872 -97 1410 -1 1244 -97 l 938 -187 b 1653 346 1447 -187 1653 28 b 1225 750 1653 596 1539 750 z "},"❡":{"ha":885,"x_min":0,"x_max":0,"o":"m 786 917 l 438 917 b 83 611 225 917 83 794 b 411 307 83 429 215 307 l 481 307 l 481 -24 b 329 -217 481 -142 442 -217 b 194 -11 235 -217 161 -140 l 117 -28 b 364 -299 65 -197 201 -299 b 786 86 699 -299 786 -108 z m 689 824 l 689 69 b 507 -217 689 -56 632 -168 l 503 -211 b 568 -61 542 -186 568 -114 l 568 824 z "},"|":{"ha":338,"x_min":0,"x_max":0,"o":"m 217 1014 l 121 1014 l 121 -233 l 217 -233 z "},"¦":{"ha":354,"x_min":0,"x_max":0,"o":"m 225 1014 l 129 1014 l 129 510 l 225 510 z m 225 271 l 129 271 l 129 -233 l 225 -233 z "},"@":{"ha":1368,"x_min":0,"x_max":0,"o":"m 704 917 b 92 310 333 917 92 668 b 672 -271 92 -39 322 -271 b 1021 -162 853 -271 942 -218 l 972 -99 b 672 -189 910 -143 833 -189 b 185 310 396 -189 185 0 b 704 835 185 629 381 835 b 1185 361 1024 835 1185 636 b 1032 71 1185 168 1131 71 b 946 206 954 71 938 132 l 1000 638 l 928 638 l 900 525 b 692 646 874 593 815 646 b 371 282 532 646 371 514 b 608 0 371 104 478 0 b 854 121 721 0 806 47 b 1015 -7 868 58 913 -7 b 1271 361 1169 -7 1271 133 b 704 917 1271 667 1094 917 z m 703 564 b 871 354 844 564 885 471 l 863 286 b 642 83 846 150 746 83 b 471 288 532 83 471 160 b 703 564 471 463 563 564 z "},"&":{"ha":865,"x_min":0,"x_max":0,"o":"m 693 164 b 778 482 756 254 785 368 l 689 493 b 632 232 696 389 674 300 b 521 368 601 268 565 314 b 429 483 485 413 454 450 b 610 742 582 572 610 646 b 396 931 610 879 504 931 b 181 728 254 931 181 828 b 286 507 181 658 208 607 b 67 224 125 421 67 335 b 358 -14 67 88 186 -14 b 633 93 471 -14 564 28 b 843 -14 725 1 774 -14 l 871 69 b 693 164 807 69 768 85 z m 394 836 b 511 739 468 836 511 806 b 375 551 511 678 499 619 b 285 729 299 651 285 682 b 394 836 285 786 321 836 z m 354 76 b 171 232 257 76 171 140 b 343 435 171 299 200 353 b 446 308 372 399 407 357 b 572 158 494 249 536 199 b 354 76 514 106 438 76 z "},"¶":{"ha":885,"x_min":0,"x_max":0,"o":"m 758 917 l 410 917 b 57 625 181 917 57 804 b 381 335 57 450 181 338 l 381 -139 l 482 -139 l 482 824 l 661 824 l 661 -139 l 758 -139 z "},"©":{"ha":1139,"x_min":0,"x_max":0,"o":"m 569 931 b 94 458 281 931 94 744 b 569 -14 94 172 281 -14 b 1044 458 858 -14 1044 172 b 569 931 1044 744 858 931 z m 569 840 b 946 458 799 840 946 690 b 569 76 946 226 799 76 b 193 458 340 76 193 226 b 569 840 193 690 340 840 z m 579 713 b 326 456 422 713 326 615 b 579 199 326 296 422 199 b 801 344 692 199 767 254 l 725 375 b 578 282 701 313 651 282 b 419 456 479 282 419 346 b 578 629 419 565 479 629 b 715 540 647 629 692 600 l 796 581 b 579 713 760 663 689 713 z "},"®":{"ha":1139,"x_min":0,"x_max":0,"o":"m 569 931 b 94 458 281 931 94 744 b 569 -14 94 172 281 -14 b 1044 458 858 -14 1044 172 b 569 931 1044 744 858 931 z m 569 76 b 193 458 340 76 193 226 b 569 840 193 690 340 840 b 946 458 799 840 946 690 b 569 76 946 226 799 76 z m 796 549 b 601 713 796 650 717 713 l 390 713 l 390 199 l 483 199 l 483 385 l 578 385 l 701 199 l 807 199 l 671 393 b 796 549 747 414 796 469 z m 483 642 l 600 642 b 703 549 667 642 703 611 b 600 456 703 486 667 456 l 483 456 z "},"§":{"ha":831,"x_min":0,"x_max":0,"o":"m 792 376 b 485 589 792 499 711 560 b 240 732 297 613 240 651 b 425 833 240 796 307 833 b 639 724 533 833 593 793 l 717 790 b 428 931 664 869 586 931 b 129 722 242 931 129 838 b 172 592 129 669 142 625 b 44 401 103 553 44 490 b 351 189 44 279 125 219 b 596 46 539 164 596 126 b 417 -56 596 -18 529 -56 b 201 56 310 -56 244 -21 l 119 -12 b 418 -153 181 -99 271 -153 b 707 56 594 -153 707 -60 b 664 186 707 110 694 153 b 792 376 733 225 792 288 z m 574 246 b 381 290 525 267 461 281 b 156 411 210 311 156 343 b 263 531 156 472 207 508 b 456 488 311 511 375 497 b 681 367 626 468 681 435 b 574 246 681 306 628 269 z "},"™":{"ha":1164,"x_min":0,"x_max":0,"o":"m 451 917 l 75 917 l 75 842 l 215 842 l 215 458 l 313 458 l 313 842 l 451 842 z m 917 917 l 821 667 l 790 578 l 788 578 l 756 667 l 661 917 l 539 917 l 539 458 l 635 458 l 635 678 l 625 799 l 626 799 l 639 761 l 754 458 l 824 458 l 938 761 l 950 799 l 951 799 l 942 678 l 942 458 l 1038 458 l 1038 917 z "},"°":{"ha":639,"x_min":0,"x_max":0,"o":"m 319 472 b 556 701 457 472 556 568 b 319 931 556 835 457 931 b 83 701 182 931 83 835 b 319 472 83 568 182 472 z m 319 563 b 181 701 239 563 181 621 b 319 840 181 782 239 840 b 458 701 400 840 458 782 b 319 563 458 621 400 563 z "},"℮":{"ha":1118,"x_min":0,"x_max":0,"o":"m 567 931 b 94 458 281 931 94 744 b 594 -14 94 172 281 -14 b 993 182 769 -14 910 49 l 993 289 b 594 63 892 131 758 63 b 279 183 460 63 351 107 l 279 418 l 1038 418 b 567 931 1038 753 861 931 z m 567 854 b 854 736 685 854 785 811 l 854 499 l 279 499 l 279 736 b 567 854 349 811 449 854 z "},"ℓ":{"ha":556,"x_min":0,"x_max":0,"o":"m 369 79 b 267 186 304 79 267 131 l 267 357 b 468 750 399 467 468 621 b 319 931 468 882 418 931 b 169 743 221 931 169 869 l 169 389 b 65 339 138 368 103 351 l 65 246 b 169 292 103 258 138 274 l 169 172 b 364 -14 169 40 232 -14 b 481 6 406 -14 447 -7 l 490 99 b 369 79 442 86 413 79 z m 322 843 b 376 757 361 843 376 822 b 267 471 376 656 339 553 l 267 750 b 322 843 267 811 279 843 z "},"^":{"ha":778,"x_min":0,"x_max":0,"o":"m 740 493 l 442 1014 l 336 1014 l 38 493 l 150 493 l 389 919 l 628 493 z "},"†":{"ha":713,"x_min":0,"x_max":0,"o":"m 658 625 l 413 625 l 413 917 l 301 917 l 301 625 l 54 625 l 54 529 l 301 529 l 301 -139 l 413 -139 l 413 529 l 658 529 z "},"‡":{"ha":713,"x_min":0,"x_max":0,"o":"m 658 529 l 658 625 l 413 625 l 413 917 l 301 917 l 301 625 l 54 625 l 54 529 l 301 529 l 301 249 l 54 249 l 54 153 l 301 153 l 301 -139 l 413 -139 l 413 153 l 658 153 l 658 249 l 413 249 l 413 529 z "},"":{"ha":1569,"x_min":0,"x_max":0,"o":"m 1431 453 l 1513 501 l 1433 556 l 1508 608 l 1417 640 l 1472 718 l 1371 714 l 1400 803 l 1294 781 l 1310 876 l 1213 833 l 1203 929 l 1115 868 l 1079 957 l 1010 881 l 958 963 l 890 888 l 822 957 l 781 868 l 701 938 l 678 847 l 585 897 l 574 807 l 483 853 l 476 761 l 383 797 l 389 711 l 311 753 l 311 657 l 233 696 l 228 581 b 96 342 228 499 163 393 b 81 344 92 343 86 344 b 24 288 50 344 24 318 b 81 231 24 257 50 231 l 88 231 b 408 118 160 167 285 124 l 408 67 l 394 67 b 351 32 365 67 351 54 b 394 0 351 10 365 0 l 456 0 b 497 40 483 0 497 14 l 497 104 l 619 104 l 619 67 l 603 67 b 561 32 576 67 561 54 b 603 0 561 10 576 0 l 667 0 b 707 40 693 0 707 14 l 707 104 l 1021 104 l 1021 67 l 1006 67 b 965 32 979 67 965 54 b 1006 0 965 10 979 0 l 1069 0 b 1110 40 1096 0 1110 14 l 1110 107 b 1201 121 1142 110 1172 114 l 1201 67 l 1186 67 b 1146 32 1160 67 1146 54 b 1186 0 1146 10 1160 0 l 1250 0 b 1290 40 1276 0 1290 14 l 1290 153 b 1329 174 1304 158 1317 165 l 1414 179 l 1375 264 l 1471 281 l 1414 351 l 1501 393 z m 549 343 l 532 372 b 579 442 565 379 582 406 b 501 513 576 488 547 514 b 464 496 488 511 474 504 l 449 522 b 500 546 461 533 481 544 b 617 444 563 549 614 507 b 549 343 619 396 592 357 z m 331 322 b 240 411 275 322 240 356 l 274 411 b 331 360 274 374 293 360 b 388 411 368 360 388 374 l 421 411 b 331 322 421 356 386 322 z "},"̦":{"ha":0,"x_min":0,"x_max":0,"o":"m -274 -106 l -390 -106 l -451 -329 l -364 -329 z "},"ˉ":{"ha":694,"x_min":0,"x_max":0,"o":"m 589 921 l 106 921 l 106 828 l 589 828 z "},"´":{"ha":694,"x_min":0,"x_max":0,"o":"m 394 1042 l 289 810 l 379 810 l 515 1042 z "},"˘":{"ha":694,"x_min":0,"x_max":0,"o":"m 553 1007 l 461 1007 b 347 885 461 942 413 885 b 233 1007 282 885 233 942 l 142 1007 b 347 801 142 885 225 801 b 553 1007 469 801 553 885 z "},"ˇ":{"ha":694,"x_min":0,"x_max":0,"o":"m 567 1042 l 465 1042 l 347 888 l 229 1042 l 128 1042 l 283 810 l 411 810 z "},"¸":{"ha":694,"x_min":0,"x_max":0,"o":"m 282 4 b 419 -135 390 -44 419 -76 b 340 -215 419 -183 385 -215 b 244 -174 301 -215 267 -197 l 203 -250 b 356 -299 242 -285 290 -299 b 517 -150 458 -299 517 -228 b 343 40 517 -75 458 6 z "},"ˆ":{"ha":694,"x_min":0,"x_max":0,"o":"m 567 800 l 411 1032 l 283 1032 l 128 800 l 229 800 l 347 954 l 465 800 z "},"¨":{"ha":694,"x_min":0,"x_max":0,"o":"m 217 967 b 138 888 169 967 138 935 b 217 808 138 840 169 808 b 296 888 264 808 296 840 b 217 967 296 935 264 967 z m 486 967 b 407 888 439 967 407 935 b 486 808 407 840 439 808 b 565 888 533 808 565 840 b 486 967 565 935 533 967 z "},"˙":{"ha":694,"x_min":0,"x_max":0,"o":"m 347 994 b 264 911 297 994 264 961 b 347 828 264 861 297 828 b 431 911 397 828 431 861 b 347 994 431 961 397 994 z "},"`":{"ha":694,"x_min":0,"x_max":0,"o":"m 300 1042 l 179 1042 l 315 810 l 406 810 z "},"˝":{"ha":694,"x_min":0,"x_max":0,"o":"m 340 1042 l 219 1042 l 114 810 l 204 810 z m 585 1042 l 464 1042 l 358 810 l 449 810 z "},"¯":{"ha":694,"x_min":0,"x_max":0,"o":"m 589 921 l 106 921 l 106 828 l 589 828 z "},"˛":{"ha":694,"x_min":0,"x_max":0,"o":"m 474 22 l 410 57 b 197 -161 272 -1 197 -57 b 363 -299 197 -242 263 -299 b 475 -274 403 -299 449 -290 l 453 -203 b 376 -219 431 -217 400 -219 b 288 -146 324 -219 288 -192 b 474 22 288 -94 335 -39 z "},"˚":{"ha":694,"x_min":0,"x_max":0,"o":"m 347 1128 b 172 964 243 1128 172 1061 b 347 799 172 865 243 799 b 521 964 451 799 521 865 b 347 1128 521 1061 451 1128 z m 347 1060 b 446 964 404 1060 446 1019 b 347 868 446 908 404 868 b 249 964 290 868 249 908 b 347 1060 249 1019 290 1060 z "},"˜":{"ha":694,"x_min":0,"x_max":0,"o":"m 599 996 l 511 996 b 442 900 501 936 483 900 b 253 994 386 900 354 994 b 96 808 154 994 106 931 l 183 808 b 251 904 193 868 210 904 b 443 810 311 904 339 810 b 599 996 539 810 589 874 z "}}}
